<svg width="93" height="86" viewBox="0 0 93 86" fill="none" xmlns="http://www.w3.org/2000/svg">
<path d="M92.8744 68.5305C92.2986 70.0802 91.3773 71.3413 89.6062 71.8011C88.9198 71.9792 88.1917 72.0126 87.3939 72.124C87.3939 72.432 87.3939 72.7401 87.3939 73.049C87.3939 75.7053 87.4134 78.3624 87.3874 81.0188C87.366 83.1994 85.933 84.7176 83.6418 84.8931C82.1168 85.0098 80.5537 85.1292 79.1559 84.263C79.0083 84.1709 78.6897 84.1867 78.5262 84.2762C76.7737 85.2371 74.9227 85.0037 73.0615 84.7264C72.7736 84.6834 72.4643 84.6123 72.1894 84.6667C70.2372 85.0493 68.3156 85.2389 66.4711 84.2455C66.3039 84.1551 65.9659 84.2411 65.7587 84.3403C63.917 85.2266 61.9843 85.1809 60.1278 84.5851C58.5285 84.0717 57.7437 82.7932 57.7065 81.1873C57.6703 79.62 57.6982 78.0518 57.6982 76.3985C56.7527 76.6135 55.8917 76.8083 54.9528 77.0216C54.9528 78.3546 54.9574 79.663 54.9518 80.9714C54.9416 83.3205 53.3145 84.9001 50.8301 84.9422C49.3859 84.9668 47.9184 85.0862 46.6331 84.2139C46.5133 84.1332 46.191 84.2472 46.0015 84.3411C44.1672 85.2511 42.2364 85.1888 40.3761 84.6044C38.7675 84.0989 37.9781 82.8326 37.9316 81.2276C37.8917 79.8341 37.9233 78.4397 37.9233 77.0233C37.0057 76.8092 36.1661 76.6126 35.1779 76.3827C35.1779 77.8544 35.1937 79.2637 35.1695 80.673C35.1603 81.2101 35.1445 81.7708 34.981 82.2772C34.5426 83.6356 33.5767 84.5728 32.0768 84.8018C30.3456 85.0669 28.5903 85.2081 26.9687 84.2815C26.8145 84.1928 26.5053 84.2016 26.3437 84.2902C24.5911 85.2485 22.7401 85.023 20.8771 84.7492C20.5622 84.7027 20.226 84.6518 19.9204 84.7062C17.9979 85.0502 16.1014 85.2573 14.2895 84.2657C14.1232 84.1744 13.787 84.249 13.5845 84.3473C11.7465 85.2397 9.81475 85.2002 7.9554 84.6097C6.22236 84.0586 5.49515 82.6721 5.48308 80.9784C5.46543 78.3502 5.47843 75.7228 5.4775 73.0946C5.4775 72.7839 5.4775 72.4724 5.4775 72.1091C4.96855 72.0635 4.52368 72.031 4.0816 71.9827C1.74208 71.7274 -0.00581722 69.917 0.00811399 67.6854C0.0211164 65.5179 -0.0810457 63.3302 0.194792 61.189C0.687957 57.3647 2.80829 54.3872 6.13599 52.1732C6.30595 52.06 6.46476 51.9345 6.64587 51.802C5.54159 49.8407 5.35862 47.8364 5.73198 45.6522C5.95488 44.3481 5.46822 42.9441 5.3707 41.5804C4.84131 34.1397 6.45826 27.1291 10.1575 20.5466C10.6005 19.7595 11.3314 19.534 12.0475 19.885C12.7747 20.2404 13.0078 20.9854 12.5629 21.7901C10.9664 24.6842 9.71538 27.6995 9.00396 30.8963C8.56373 32.8726 8.22009 32.4777 10.1268 33.2306C12.6576 34.2301 13.6598 35.8983 13.4304 38.3879C13.3923 38.8038 13.4954 39.2321 13.539 39.713C16.2027 39.6533 18.4307 40.5036 20.2994 42.3368C20.774 41.9481 21.2383 41.569 21.7789 41.1267C20.9402 40.7406 20.1628 40.372 19.3762 40.021C18.141 39.4699 17.4908 38.5608 17.4147 37.269C17.3757 36.6153 17.2503 35.9641 17.2317 35.3104C17.1955 34.0239 17.8735 33.0489 19.1459 32.5874C20.1861 32.21 21.23 31.7625 22.3148 31.6028C23.119 31.4852 24.058 31.6308 24.8177 31.9292C25.8078 32.318 26.6799 32.9735 27.6569 33.5465C27.8612 33.371 28.0674 33.2157 28.2467 33.0367C29.2023 32.0819 30.2351 31.1833 31.084 30.1496C32.6285 28.2672 34.6773 27.1686 36.9908 26.3946C37.9632 26.069 38.6895 26.2752 39.0303 27.0457C39.3517 27.7714 39.0619 28.4998 38.0812 28.7788C35.6571 29.4677 33.9037 30.9525 32.3341 32.7286C31.5994 33.5606 30.784 34.331 29.9843 35.1094C28.7779 36.2827 27.4554 36.4459 25.9731 35.6333C25.7641 35.5183 25.5598 35.3981 25.3545 35.277C23.785 34.3568 22.1432 34.2404 20.4294 34.9278C20.2929 34.983 20.1257 35.0269 20.0393 35.127C19.7607 35.4473 20.265 37.5051 20.6737 37.6981C22.0761 38.3589 23.4803 39.0197 24.9022 39.6428C25.1818 39.7656 25.5477 39.7507 25.8709 39.7411C30.158 39.6147 33.052 41.3794 34.6996 45.1239C34.7841 45.3161 34.9448 45.5978 35.1055 45.6206C36.0286 45.7531 36.962 45.8637 37.8926 45.8716C38.0663 45.8733 38.3003 45.3907 38.4109 45.0993C39.6814 41.7524 42.8345 39.7095 46.7157 39.7384C50.1623 39.7648 53.3535 41.9981 54.4949 45.195C55.2017 47.1747 55.0791 49.122 54.1996 51.0324C54.0918 51.2667 53.9776 51.4975 53.8699 51.7318C53.8596 51.7537 53.8726 51.7862 53.8773 51.8318C54.6667 52.4233 55.4673 53.0226 56.305 53.6501C57.1168 53.0463 57.9378 52.4364 58.678 51.8853C58.3464 50.6699 57.896 49.5125 57.7372 48.3208C57.5133 46.6359 58.0269 45.0537 58.9185 43.5715C59.1563 43.1766 59.3095 42.6782 59.3142 42.2254C59.3485 39.1689 59.33 36.1124 59.3327 33.056C59.3346 31.171 60.0711 30.2382 62.0038 29.702C63.6226 29.2536 65.2591 28.8604 66.863 28.3708C67.3033 28.2365 67.7546 27.911 68.0295 27.5547C68.845 26.4946 69.6233 25.4012 70.3272 24.2718C71.217 22.8449 72.5024 22.4184 74.1667 22.6352C76.0502 22.88 77.9411 23.0678 79.8302 23.2705C80.211 23.3118 80.5983 23.3083 81.1072 23.3311C77.6839 16.739 72.7522 11.6273 66.0857 7.7679C66.0541 9.98369 64.5895 10.7752 62.7561 11.2886C61.6658 11.594 60.3516 11.7853 59.6244 12.482C58.9232 13.1534 58.847 14.4082 58.495 15.4069C58.3622 15.7851 58.2443 16.1686 58.0892 16.538C57.453 18.0614 55.9568 18.767 54.2859 18.3414C51.8025 17.7096 51.1319 16.9268 50.9685 14.5179C50.9183 13.7782 50.8951 13.0235 50.7103 12.3101C50.5774 11.7976 50.2747 11.2798 49.9125 10.8726C47.9602 8.67879 45.4666 7.45111 42.4667 6.90528C39.9591 6.44984 39.4669 5.71271 39.23 3.16345C37.1803 3.74439 35.1668 4.3025 33.1662 4.89835C32.9535 4.96153 32.7632 5.22128 32.648 5.43102C31.4183 7.68629 30.1905 9.94245 29.0054 12.2188C28.8392 12.5382 28.8002 12.984 28.8773 13.3376C29.0407 14.0871 29.3574 14.8067 29.5404 15.5534C29.6881 16.1563 29.9806 16.5635 30.6094 16.8022C31.2196 17.0338 31.7898 17.362 32.4864 17.7008C32.6201 17.3708 32.7427 17.097 32.8421 16.8162C33.3102 15.4938 33.7448 14.1599 34.2427 12.8471C34.7535 11.5001 35.8048 10.8068 37.3019 10.9332C39.5857 11.1254 41.8658 11.3728 44.1366 11.6738C45.226 11.8177 45.9969 12.4829 46.3851 13.464C47.4206 16.0773 48.459 18.6889 49.4397 21.3206C50.023 22.8853 49.3181 24.2885 47.69 24.9659C46.504 25.4591 45.3059 25.926 44.105 26.3893C43.0778 26.7851 42.3097 26.5429 41.9884 25.7478C41.6968 25.0274 42.0896 24.3762 43.075 23.9761C44.1273 23.5487 45.1805 23.1222 46.2439 22.7194C46.7046 22.5448 46.9238 22.357 46.7129 21.8331C45.76 19.4646 44.8601 17.0777 43.8951 14.7136C43.7985 14.4776 43.4066 14.2389 43.1215 14.1994C41.3002 13.9484 39.4687 13.7685 37.6456 13.529C37.0911 13.4561 36.8301 13.6123 36.6695 14.1204C36.2562 15.4288 35.7992 16.7258 35.3441 18.0228C34.6262 20.0675 32.778 20.795 30.7496 19.7981C27.2501 18.079 27.6671 18.5529 26.4375 14.9295C25.8561 13.2148 25.9109 11.7423 26.9297 10.218C27.617 9.1904 28.1176 8.05047 28.8132 6.75259C28.3637 6.94565 28.1036 7.03779 27.864 7.16416C23.2927 9.57213 19.3846 12.7146 16.1562 16.6091C16.0076 16.789 15.8618 16.9742 15.6919 17.1348C15.1058 17.685 14.4185 17.7315 13.8232 17.276C13.2446 16.8329 13.0988 16.1317 13.578 15.5254C14.3006 14.6118 15.0557 13.7141 15.872 12.8743C22.6677 5.89173 31.0245 1.66374 40.9705 0.36147C61.6788 -2.35101 81.5382 10.4742 86.4447 29.6976C87.7255 34.7163 87.9902 39.7893 87.1078 44.9001C87.0688 45.1239 87.0159 45.3705 87.0735 45.5802C87.6735 47.7556 87.3503 49.8178 86.2116 51.8125C88.7926 53.3973 90.7309 55.471 91.837 58.1597C92.281 59.2382 92.5345 60.3869 92.8744 61.504V68.5305ZM58.0697 55.7632C60.0107 58.4704 60.5243 61.4207 60.4807 64.5482C60.4101 69.6029 60.4621 74.6592 60.4621 79.7156C60.4621 81.435 61.3593 82.2892 63.1536 82.278C64.5347 82.2693 64.7975 82.0288 64.7984 80.7283C64.8021 76.7864 64.7984 72.8445 64.804 68.9026C64.804 68.5919 64.817 68.2708 64.8987 67.9733C65.0696 67.3476 65.5303 67.0009 66.2148 67.0053C66.8983 67.0097 67.3553 67.359 67.5187 67.9873C67.5967 68.2874 67.6125 68.6068 67.6125 68.9184C67.619 72.6032 67.6162 76.288 67.6162 79.9727C67.6162 81.5131 68.4419 82.2815 70.0932 82.278C71.7092 82.2754 71.9637 82.0323 71.9646 80.4791C71.9656 74.9374 71.9646 69.3966 71.9665 63.855C71.9665 63.5408 71.9628 63.2249 71.9971 62.9142C72.0742 62.2105 72.5358 61.8305 73.25 61.7866C74.02 61.7392 74.5038 62.149 74.6877 62.837C74.7602 63.1073 74.7249 63.4048 74.7249 63.69C74.7277 65.5679 74.7258 67.4459 74.7258 69.3115C76.6223 69.5581 77.4647 68.8956 77.4693 67.2291C77.473 65.8014 77.5 64.3718 77.461 62.945C77.3746 59.7481 76.0288 57.0935 73.4757 55.0032C72.0482 53.8343 72.0278 53.8563 70.3867 54.7312C70.3607 54.7452 70.3347 54.761 70.3087 54.7751C69.1914 55.3551 68.3676 55.2709 67.9237 54.532C67.4667 53.7712 67.7936 53.1104 68.9211 52.5154C69.0261 52.4601 69.1338 52.4057 69.2332 52.3425C71.3498 50.9955 72.2683 49.1114 71.8262 46.7465C71.4167 44.5561 69.9725 43.1003 67.7165 42.5158C65.3352 41.8989 63.2818 42.5755 61.7233 44.3762C59.499 46.9474 60.2791 50.7164 63.3505 52.4268C63.9161 52.7418 64.4418 53.0498 64.4576 53.7598C64.4827 54.8988 63.3208 55.3902 62.0911 54.7733C61.5395 54.4969 60.9246 54.0134 60.4055 54.0809C59.8259 54.1564 59.316 54.7426 58.7894 55.1252C58.5535 55.2972 58.352 55.5122 58.0715 55.7641L58.0697 55.7632ZM37.9214 69.3615C37.9214 68.9965 37.9214 68.6885 37.9214 68.3796C37.9214 66.6376 37.9056 64.8957 37.9307 63.1547C37.9428 62.3158 38.539 61.784 39.3443 61.8015C40.1337 61.8191 40.612 62.2973 40.6687 63.1389C40.6863 63.3951 40.6779 63.6523 40.6779 63.9094C40.6779 69.1913 40.6779 74.4732 40.6779 79.7551C40.6779 81.4587 41.585 82.3032 43.3992 82.2886C44.77 82.278 45.0263 82.0376 45.0273 80.7239C45.03 76.8408 45.0282 72.9577 45.0291 69.0755C45.0291 68.8473 45.0161 68.6174 45.0365 68.3901C45.1146 67.5468 45.6885 66.9904 46.4547 67.0018C47.2228 67.0132 47.7689 67.5696 47.8377 68.4252C47.8562 68.6525 47.8442 68.8815 47.8442 69.1106C47.8442 72.7365 47.8442 76.3625 47.8442 79.9885C47.8442 81.5248 48.6714 82.2912 50.3258 82.2877C51.9436 82.2842 52.1944 82.0455 52.1944 80.4887C52.1953 74.9497 52.1944 69.4107 52.1963 63.8716C52.1963 63.5575 52.1888 63.2416 52.225 62.9309C52.3068 62.2342 52.7498 61.8524 53.4761 61.8077C54.2571 61.7594 54.7299 62.1631 54.9138 62.8502C54.9862 63.1205 54.95 63.4179 54.9509 63.7032C54.9537 65.5802 54.9518 67.4573 54.9518 69.3203C56.905 69.5563 57.6935 68.9078 57.6954 67.1493C57.6972 65.7215 57.7409 64.2929 57.6824 62.8669C57.5319 59.1593 55.7636 56.2888 52.5492 54.1854C52.147 53.9221 51.8619 53.937 51.4356 54.2187C48.2723 56.3143 44.5852 56.3318 41.4739 54.2468C40.9658 53.9063 40.6557 53.9686 40.2126 54.2556C37.8518 55.786 36.1011 57.814 35.5977 60.4659C35.1863 62.6317 35.2578 64.8843 35.1872 67.101C35.1305 68.8991 35.854 69.487 37.9196 69.3598L37.9214 69.3615ZM18.1493 69.3124C18.1493 69.0202 18.1493 68.7121 18.1493 68.4041C18.1493 66.6622 18.1345 64.9203 18.1577 63.1793C18.1688 62.3342 18.7474 61.7954 19.548 61.8006C20.3365 61.805 20.8353 62.285 20.8975 63.1152C20.9188 63.3995 20.9096 63.6856 20.9096 63.9717C20.9096 69.2255 20.9096 74.4793 20.9096 79.7332C20.9096 81.4491 21.8083 82.3011 23.6057 82.2894C24.9951 82.2807 25.2561 82.0437 25.257 80.7476C25.2607 76.8075 25.2552 72.8673 25.2635 68.9271C25.2635 68.5893 25.2115 68.1549 25.4019 67.9347C25.7316 67.5547 26.2322 67.0712 26.6622 67.0703C27.0932 67.0694 27.5965 67.5494 27.9281 67.9276C28.1194 68.1461 28.0674 68.5814 28.0683 68.9193C28.0767 72.6023 28.0739 76.2862 28.0739 79.9692C28.0739 81.519 28.8937 82.2924 30.5332 82.2894C32.1669 82.2868 32.4093 82.0586 32.4093 80.501C32.4102 74.933 32.4019 69.365 32.4177 63.7979C32.4204 62.8879 32.3703 61.9375 32.6173 61.0758C33.1393 59.254 33.8414 57.4788 34.5361 55.4938C34.0866 55.1647 33.4281 54.618 32.6954 54.1836C32.4613 54.045 31.9468 54.0862 31.7016 54.2424C28.4426 56.3151 24.867 56.3345 21.6451 54.2047C21.2068 53.9142 20.9207 53.9493 20.5288 54.1968C18.1196 55.7167 16.3225 57.7473 15.8265 60.4405C15.417 62.665 15.4903 64.9738 15.417 67.2475C15.364 68.9114 16.2538 69.5704 18.1493 69.3124ZM84.7117 41.7638C85.1436 36.6574 84.4163 31.7888 82.7372 27.0211C82.4753 26.277 82.0369 26.0813 81.3134 26.0146C78.7909 25.782 76.2703 25.5337 73.7553 25.238C73.2203 25.1748 72.9268 25.2757 72.6445 25.6987C71.8411 26.9062 70.9848 28.0812 70.1721 29.2825C69.6418 30.0679 68.9184 30.5638 67.9682 30.8112C66.2844 31.2509 64.6192 31.7528 62.9279 32.16C62.262 32.3206 62.0893 32.6225 62.0986 33.2315C62.132 35.4297 62.1097 37.6288 62.1143 39.8279C62.1143 40.0701 62.1534 40.3123 62.1784 40.5958C66.0977 38.9873 69.5387 39.5603 72.5312 42.3035C76.5944 39.0048 79.6639 38.8661 84.7117 41.7638ZM77.8965 55.7483C78.0479 56.0142 78.1259 56.1651 78.216 56.3081C79.441 58.2554 80.1822 60.3457 80.1933 62.6238C80.2212 68.3629 80.2203 74.102 80.2286 79.8402C80.2311 81.4648 81.0818 82.2772 82.7808 82.2772C84.3671 82.2737 84.5761 82.0832 84.577 80.6125C84.5789 75.0734 84.577 69.5335 84.577 63.9945C84.577 63.7663 84.5696 63.5373 84.5798 63.3091C84.6253 62.3359 85.1733 61.7533 86.0184 61.7743C86.8274 61.7945 87.3549 62.3632 87.3874 63.2872C87.4088 63.8866 87.392 64.4859 87.392 65.0862C87.392 66.5043 87.392 67.9224 87.392 69.3255C89.3099 69.523 90.143 68.8491 90.1514 67.1835C90.1579 65.8128 90.195 64.4412 90.1411 63.0722C89.9963 59.3523 88.3319 56.3897 85.0823 54.2512C84.7433 54.0283 84.4414 53.7834 83.9668 54.1301C82.2236 55.4043 80.2128 55.8799 77.8947 55.7465L77.8965 55.7483ZM5.47843 69.3168C5.47843 68.341 5.47843 67.3502 5.47843 66.3603C5.47843 65.3038 5.45336 64.2472 5.49051 63.1924C5.52115 62.3245 6.07655 61.8068 6.87805 61.8033C7.68328 61.7998 8.20709 62.3061 8.28418 63.1801C8.30647 63.4355 8.29254 63.6935 8.29254 63.9506C8.29254 69.2887 8.29254 74.6268 8.29254 79.9648C8.29254 81.5175 9.11076 82.2924 10.7472 82.2894C12.3837 82.2868 12.64 82.0499 12.6409 80.5168C12.6428 74.9216 12.6335 69.3273 12.6493 63.7321C12.6521 62.8221 12.6103 61.8752 12.8518 61.0109C13.3458 59.2453 14.0183 57.5253 14.6127 55.7974C12.5963 55.8966 10.5884 55.3534 8.78013 54.1213C8.59252 53.9932 8.09564 54.0915 7.85231 54.2433C5.41063 55.7702 3.64602 57.8614 3.13613 60.5765C2.72934 62.744 2.79621 64.9975 2.72934 67.2151C2.67919 68.8789 3.58007 69.5555 5.47658 69.3168H5.47843ZM46.438 2.62026C45.2047 2.69134 43.9685 2.74399 42.737 2.84227C42.1769 2.88703 41.8036 3.50657 42.1221 3.92955C42.3125 4.18315 42.7583 4.35076 43.1122 4.39727C46.712 4.86588 49.5456 6.56655 51.9901 9.04472C52.917 9.98457 53.4389 10.9516 53.5123 12.2074C53.5671 13.1446 53.7473 14.0739 53.8216 15.0111C53.881 15.7658 54.5497 15.693 55.0187 15.7842C55.1868 15.8167 55.5602 15.4367 55.6568 15.1831C56.0719 14.0862 56.4221 12.9682 56.788 11.8555C57.1363 10.798 57.8625 10.103 58.9715 9.74763C60.1965 9.35537 61.4057 8.91222 62.6437 8.5612C63.6616 8.27337 63.2623 7.43795 63.4295 6.84737C63.4796 6.66835 63.0728 6.2559 62.7868 6.12778C57.6183 3.80581 52.1702 2.6422 46.439 2.62113L46.438 2.62026ZM46.4761 53.1437C49.6329 53.1288 52.1591 50.7507 52.1823 47.7723C52.2055 44.808 49.5818 42.3105 46.4399 42.307C43.3007 42.3035 40.6714 44.7983 40.6891 47.7635C40.7067 50.7752 43.271 53.1586 46.4761 53.1437ZM26.6641 53.1437C29.8599 53.1437 32.439 50.7129 32.414 47.7258C32.3889 44.7773 29.8181 42.3342 26.7105 42.307C23.5751 42.2798 20.9421 44.7422 20.9188 47.7249C20.8956 50.7182 23.4673 53.1437 26.6641 53.1437ZM14.0155 53.1455C15.7132 53.1569 17.1101 52.5294 18.2719 51.3781C18.6378 51.0157 18.7558 50.684 18.5682 50.1601C18.0119 48.6095 17.9654 47.0132 18.5385 45.4626C18.7837 44.7992 18.5765 44.3999 18.1205 43.9603C16.3039 42.214 13.474 41.8182 11.2153 43.0152C8.94452 44.2183 7.80123 46.7359 8.46343 49.0719C9.16742 51.5545 11.3453 53.1525 14.0155 53.1455ZM84.5724 47.703C84.5631 45.4503 83.1245 43.4662 80.9205 42.6668C78.7649 41.8858 76.2592 42.4298 74.684 44.0085C74.2874 44.4052 74.0952 44.7623 74.3153 45.3687C74.8893 46.9465 74.8753 48.5691 74.2995 50.1496C74.1082 50.6743 74.2419 51.0025 74.5986 51.3693C76.2192 53.0349 78.7556 53.5992 80.9744 52.769C83.1755 51.9459 84.5807 49.9679 84.5724 47.703ZM74.6924 82.278C75.0267 82.278 75.4121 82.2798 75.7976 82.278C77.2028 82.271 77.4665 82.0183 77.4665 80.666C77.4684 77.9614 77.4684 75.256 77.4647 72.5514C77.4647 72.2864 77.4387 72.0205 77.4257 71.7914C76.4774 71.9038 75.623 72.0047 74.6914 72.1152V82.2789L74.6924 82.278ZM18.1725 82.2324V72.1346C17.2131 72.0187 16.3401 71.9143 15.4049 71.802C15.4049 74.5653 15.4513 77.2734 15.3909 79.978C15.338 82.35 15.651 82.3869 18.1428 82.25C18.1688 82.2482 18.193 82.2192 18.1725 82.2324ZM38.9403 51.8687C38.6347 50.87 38.3598 49.9188 38.0431 48.9807C37.9818 48.799 37.7719 48.5559 37.6001 48.5314C36.8078 48.4199 36.0054 48.376 35.3098 48.3164C34.9058 49.5511 34.5343 50.6831 34.1488 51.8616C34.9011 52.425 35.7221 53.0393 36.5524 53.6615C37.379 53.041 38.1991 52.4259 38.9403 51.8687ZM8.13465 35.2577V41.7849C8.9956 41.2899 9.75067 40.888 10.4621 40.4255C10.6274 40.3176 10.7231 40.0034 10.7156 39.7884C10.6841 38.8196 10.6246 37.8508 10.528 36.8855C10.5067 36.6706 10.3497 36.3915 10.163 36.2809C9.58257 35.9396 8.95752 35.6658 8.13465 35.2577ZM35.1798 71.7906C35.1798 72.303 35.1547 72.8111 35.1955 73.314C35.2067 73.4561 35.3822 73.6632 35.5271 73.7062C36.2878 73.9335 37.0633 74.1169 37.875 74.3266V72.1284C36.975 72.0152 36.1206 71.909 35.1798 71.7906ZM54.9983 72.1302V74.2319C57.5876 74.0221 57.935 73.6948 57.6081 71.8002C56.7527 71.9081 55.8973 72.017 54.9983 72.1302Z" fill="#0A567A"/>
</svg>
