<svg width="90" height="90" viewBox="0 0 90 90" fill="none" xmlns="http://www.w3.org/2000/svg">
<g clip-path="url(#clip0_76_1694)">
<path d="M23.0966 37.4374C24.7796 37.8199 26.4707 38.0152 28.2014 37.8514C30.095 37.6723 31.9895 37.4896 33.8876 37.3618C35.8091 37.2322 37.6145 37.6651 39.2363 38.7226C39.6494 38.9917 39.95 39.0322 40.3667 38.7406C43.1783 36.775 46.3445 36.4591 49.6421 36.7957C52.9163 37.1296 56.1887 37.4806 59.4638 37.8001C61.8965 38.0377 64.1996 37.4221 66.4586 36.6211C66.6899 36.5392 66.9284 36.1756 66.9698 35.9119C67.1903 34.4917 67.9058 33.4045 69.1694 32.7736C71.3006 31.708 73.4678 30.7135 75.635 29.7217C76.5377 29.3086 77.3405 29.6092 77.6942 30.4039C78.047 31.1968 77.7392 31.9546 76.8167 32.4001C74.888 33.3316 72.9431 34.2298 71.0081 35.1487C69.8264 35.7094 69.6311 36.2125 70.1711 37.3627C73.3508 44.1379 76.535 50.9113 79.7228 57.6829C80.2763 58.8574 80.7668 59.0311 81.9521 58.4812C83.9231 57.5668 85.8671 56.5903 87.8696 55.7533C88.3322 55.5598 89.0819 55.6642 89.5202 55.9288C89.8433 56.1241 90.0629 56.8369 89.9846 57.2554C89.9063 57.6766 89.4788 58.168 89.0747 58.3705C86.9984 59.41 84.8852 60.3784 82.7747 61.3486C81.5462 61.9138 80.3177 61.8418 79.1036 61.2568C78.9101 61.1632 78.6194 61.0516 78.4655 61.1299C76.6772 62.0416 74.906 62.9884 73.1033 63.9406C74.3444 67.9033 71.8937 70.8148 68.7995 71.3872C68.6843 72.3268 68.6906 73.2736 68.4359 74.1439C67.8437 76.1716 66.4037 77.356 64.3733 77.8807C64.1114 77.9482 63.7046 78.2695 63.7136 78.454C63.9026 82.0621 60.6365 85.015 56.9726 84.2113C56.915 84.1987 56.852 84.2095 56.7305 84.2095C56.6531 84.5353 56.5721 84.8746 56.4911 85.2148C55.6307 88.8193 51.8066 90.568 48.5351 88.8211C47.2841 88.1533 46.0961 87.3676 44.8523 86.6854C44.5931 86.5432 44.144 86.4874 43.9001 86.6161C41.0624 88.1173 38.8151 87.6601 36.8045 85.1248C36.7685 85.0798 36.71 85.0528 36.8162 85.1311C35.72 85.4083 34.7552 85.798 33.7679 85.8727C31.6484 86.0311 29.8394 84.8278 28.9574 82.8415C28.7918 82.4689 28.7036 82.1899 28.1582 82.2034C25.0451 82.2808 23.7437 81.4339 22.4396 78.5413C21.6872 78.5413 20.8808 78.6727 20.1329 78.5188C16.7516 77.8231 15.0326 74.107 16.7678 71.1091C17.3609 70.084 17.4977 69.2947 16.9253 68.2417C16.4717 67.4074 16.2044 66.4471 15.9884 65.512C15.4583 63.226 14.2829 61.4782 12.0032 60.5134C10.3283 62.0497 8.44098 62.0245 6.40968 60.9742C4.69518 60.0877 2.92218 59.3164 1.17888 58.4857C0.13128 57.9862 -0.23052 57.2464 0.14568 56.4202C0.54888 55.5346 1.34538 55.3267 2.44608 55.8397C4.36038 56.7316 6.26748 57.6415 8.18358 58.528C9.25008 59.0221 9.78468 58.8304 10.2896 57.7585C13.5053 50.9338 16.7156 44.1073 19.9187 37.2772C20.4047 36.2404 20.1896 35.6878 19.1186 35.1766C17.2124 34.2676 15.2954 33.3802 13.3883 32.4739C12.3236 31.9672 11.9735 31.2418 12.3569 30.3985C12.7511 29.53 13.5863 29.3122 14.6744 29.8198C16.5608 30.7 18.4346 31.6081 20.3264 32.4775C22.274 33.373 23.255 34.8292 23.066 37.0072C23.0561 37.1242 23.0822 37.2439 23.0975 37.4392L23.0966 37.4374ZM36.0233 69.724C37.4111 69.3532 38.6585 69.6079 39.8294 70.273C41.0399 70.9606 41.75 72.0613 42.191 73.3069C42.7976 73.2718 43.3457 73.1638 43.8749 73.2223C47.762 73.6525 49.7312 77.5675 47.7917 80.9794C47.231 81.9658 46.6496 82.9405 46.0592 83.9512C47.3939 84.7414 48.6161 85.5262 49.8986 86.194C50.3747 86.4415 51.0101 86.5549 51.542 86.4874C52.6193 86.3506 53.3465 85.6981 53.5913 84.5929C53.8415 83.4625 53.4671 82.5436 52.5383 81.9037C51.6941 81.3223 50.7761 80.8489 49.9058 80.3035C49.0436 79.7635 48.806 78.9841 49.2371 78.2317C49.6808 77.4577 50.5205 77.293 51.4421 77.8015C51.6536 77.9185 51.8588 78.0454 52.0667 78.1687C53.6804 79.1209 55.2842 80.0884 56.9096 81.0181C57.8627 81.5626 58.8365 81.5032 59.7212 80.8579C60.56 80.2459 60.9371 79.3252 60.6131 78.3784C60.38 77.6962 59.8634 76.978 59.2703 76.5766C57.6215 75.4615 55.853 74.5246 54.1628 73.4671C53.7812 73.2286 53.306 72.8101 53.2664 72.433C53.2142 71.9407 53.4068 71.1658 53.7605 70.9525C54.2015 70.6861 55.0313 70.6483 55.4876 70.894C57.5864 72.0262 59.6195 73.2817 61.6616 74.5156C62.432 74.9809 63.2294 75.1618 64.0826 74.8684C65.0159 74.5471 65.5901 73.8739 65.7269 72.8884C65.8844 71.7562 65.4515 70.8598 64.4813 70.2712C62.6219 69.1426 60.74 68.0509 58.8725 66.9358C57.8465 66.3229 57.554 65.5075 58.049 64.6984C58.5143 63.9379 59.3639 63.8182 60.3521 64.3987C62.306 65.5462 64.2455 66.718 66.2075 67.8511C66.644 68.1031 67.1309 68.3371 67.6214 68.4127C68.8193 68.5972 69.8921 67.879 70.3025 66.7234C70.703 65.5948 70.316 64.4176 69.2189 63.739C67.4459 62.6437 65.5802 61.6888 63.8621 60.5152C62.1197 59.3254 60.3161 58.8952 58.1957 58.9348C52.0496 59.05 46.8179 56.8099 42.5879 52.3045C41.4431 51.0859 41.4287 51.0805 39.896 51.742C39.6107 51.8653 39.3425 52.102 39.1472 52.3504C38.4182 53.2765 37.7639 54.2647 37.0052 55.1647C35.7299 56.6785 34.1324 57.6631 32.1011 57.7477C29.9024 57.8395 27.9953 57.2032 26.8739 55.1746C25.8065 53.2441 26.1953 51.4063 27.4787 49.672C28.5749 48.1897 29.5514 46.6165 30.6818 45.1621C31.2569 44.4223 31.9913 43.7608 32.7689 43.2325C34.0289 42.3757 35.3843 41.6584 36.8423 40.798C35.3519 40.159 33.9893 40.2427 32.6114 40.3489C30.3236 40.5253 28.034 40.7494 25.7435 40.7764C24.4376 40.7917 23.1281 40.4569 21.7952 40.276C21.6728 40.5154 21.5423 40.753 21.428 40.9969C18.9872 46.1872 16.5491 51.3793 14.1101 56.5705C13.5215 57.8233 13.4603 57.934 14.6231 58.5856C16.8839 59.8537 18.0134 61.8544 18.674 64.234C18.8702 64.9387 19.1087 65.6317 19.4084 66.5857C20.5721 64.198 21.9482 62.3566 24.5906 62.2873C27.2087 62.2189 28.8692 63.6445 29.7548 66.0214C32.5808 65.548 34.8947 66.7468 36.0251 69.7195L36.0233 69.724ZM67.8491 39.3571C67.6691 39.3841 67.5449 39.3805 67.4387 39.4228C63.4031 41.0203 59.2712 40.9546 55.0439 40.366C52.1234 39.9601 49.1525 39.8188 46.2014 39.7792C45.0863 39.7639 43.8614 40.1806 42.8642 40.7251C39.8978 42.3442 37.0187 44.1217 34.109 45.8452C33.8534 45.9964 33.5672 46.1575 33.4016 46.3897C32.0867 48.2356 30.7655 50.0779 29.5127 51.9661C28.8503 52.9642 29.276 54.1207 30.3929 54.5707C31.607 55.0603 32.7968 54.9316 33.8111 54.1153C34.4366 53.6122 35.0513 53.011 35.4491 52.3252C36.7145 50.1445 38.5091 48.7882 40.9652 48.1753C42.3269 47.8351 42.5537 47.872 43.5545 48.9061C44.9153 50.3119 46.2725 51.7672 47.8394 52.9183C51.5159 55.6201 55.781 56.2924 60.2297 55.972C61.2782 55.8964 62.1602 56.0629 63.0548 56.6191C65.3111 58.0204 67.6295 59.3236 69.8876 60.7231C70.541 61.1281 71.1242 61.2073 71.8388 60.9823C73.6235 60.4198 75.3677 59.7925 76.8788 58.5658C73.8503 52.1245 70.8506 45.7444 67.8473 39.3571H67.8491ZM30.9122 68.6899C30.3659 69.0625 29.6315 69.3145 29.3057 69.8275C27.9782 71.9128 26.7452 74.0611 25.5401 76.2211C24.956 77.2678 25.3538 78.4729 26.3375 79.0462C27.2978 79.606 28.5164 79.3918 29.132 78.3946C30.446 76.2643 31.7339 74.1124 32.9138 71.9065C33.6662 70.4998 32.6069 68.9014 30.9122 68.6899ZM26.9981 67.3849C26.8829 66.4309 26.2898 65.6047 25.4618 65.3518C24.4574 65.0449 23.4935 65.4067 22.904 66.3913C21.7421 68.3308 20.6045 70.2856 19.4741 72.244C18.7397 73.5166 18.9989 74.7496 20.1005 75.3931C21.2075 76.0402 22.4 75.6676 23.1506 74.4031C24.2747 72.5113 25.3871 70.6114 26.4779 68.6998C26.7092 68.2948 26.8271 67.8241 26.9972 67.384L26.9981 67.3849ZM33.7706 83.1412C34.2791 82.8082 34.9712 82.5913 35.2646 82.1233C36.6425 79.9273 37.9529 77.6863 39.1958 75.412C39.6971 74.4949 39.2273 73.3492 38.3489 72.8254C37.4453 72.2872 36.1565 72.4564 35.5958 73.3591C34.2449 75.5362 32.9183 77.7358 31.7177 79.9975C30.9788 81.3898 32.1056 82.99 33.7706 83.1403V83.1412ZM43.4078 75.9817C42.8561 76.3417 42.1298 76.582 41.786 77.0842C40.8347 78.4747 40.0058 79.9534 39.2021 81.4375C38.6621 82.4347 39.0599 83.6497 39.9878 84.2041C40.904 84.7513 42.2072 84.5272 42.8039 83.5912C43.7264 82.1431 44.621 80.668 45.3986 79.1389C46.0961 77.7664 45.0629 76.2184 43.4078 75.9817Z" fill="#0A567A"/>
<path d="M59.5206 8.4275C59.229 13.2722 58.2866 17.9486 56.0843 22.3055C53.8722 26.6822 50.7528 30.1895 46.2645 32.3666C45.3978 32.7869 44.6472 32.7896 43.7814 32.3666C38.5929 29.8295 35.2773 25.6193 33.0948 20.4173C31.2462 16.0109 30.5955 11.3633 30.5316 6.61849C30.5163 5.45119 31.0824 4.90849 32.238 4.87249C36.5715 4.7393 40.5792 3.64669 44.0271 0.888195C44.6805 0.365295 45.3627 0.364395 46.0143 0.883695C49.491 3.65569 53.5248 4.75729 57.8925 4.87519C58.9302 4.90309 59.4864 5.46919 59.517 6.52399C59.535 7.15759 59.5206 7.79299 59.5206 8.4275ZM33.5349 7.7696C33.6618 12.0167 34.3746 16.0271 36.0513 19.835C37.8144 23.8382 40.3992 27.134 44.2782 29.3129C44.82 29.6171 45.252 29.6063 45.7848 29.3093C47.8242 28.1762 49.5431 26.6732 50.9886 24.8579C53.909 21.1913 55.4148 16.9325 56.097 12.3524C56.3211 10.8485 56.4138 9.32479 56.5704 7.76869C52.3935 7.415 48.6639 6.344 45.3348 4.0634C45.1683 3.9491 44.7687 4.05169 44.5401 4.17229C43.686 4.6214 42.8778 5.1587 42.0174 5.5916C39.3921 6.9119 36.5643 7.4933 33.534 7.7696H33.5349Z" fill="#0A567A"/>
<path d="M43.8622 17.4752C45.0529 16.1765 46.2148 14.9111 47.374 13.643C47.8978 13.0697 48.5089 12.8402 49.2379 13.2083C50.0938 13.6394 50.3539 14.6753 49.6951 15.4286C48.1435 17.2043 46.5478 18.944 44.9206 20.6504C44.3464 21.2525 43.5886 21.2354 42.9604 20.681C42.1 19.9214 41.2693 19.1231 40.4692 18.2996C39.8203 17.6318 39.8428 16.7948 40.4476 16.2008C41.0227 15.6347 41.8138 15.6167 42.4861 16.1891C42.9442 16.5797 43.3681 17.0108 43.8622 17.4752Z" fill="#0A567A"/>
</g>
<defs>
<clipPath id="clip0_76_1694">
<rect width="90" height="90" fill="white"/>
</clipPath>
</defs>
</svg>
