<svg width="90" height="90" viewBox="0 0 90 90" fill="none" xmlns="http://www.w3.org/2000/svg">
<path d="M7.03167 30.9834C7.03167 26.1864 7.02987 21.3894 7.03167 16.5924C7.03257 13.4181 8.56167 11.7117 11.7063 11.1915C18.7263 10.0296 25.1622 7.32958 31.0167 3.35068C32.985 2.01328 34.9002 1.45168 37.2528 1.50658C43.011 1.64068 48.7746 1.57138 54.5346 1.53088C55.5804 1.52368 56.4192 1.78468 57.2823 2.38498C62.9658 6.33688 69.1191 9.27358 75.9114 10.7721C76.8789 10.9854 77.8626 11.1231 78.831 11.3337C81.2268 11.8557 82.7505 13.6035 82.7568 16.0299C82.782 25.9164 82.8756 35.8047 82.7226 45.6894C82.6002 53.5689 79.6554 60.5628 75.0636 66.8502C68.2776 76.1418 59.5269 82.9809 48.7503 87.0642C44.1693 88.8003 45.5787 88.7994 41.2542 87.1299C28.5921 82.242 18.6345 74.0295 11.8143 62.2134C8.58597 56.6208 6.97677 50.5494 7.02447 44.0586C7.05687 39.7008 7.03077 35.3421 7.03077 30.9834H7.03167ZM9.57777 31.5162C9.57777 35.6985 9.63717 39.8817 9.56337 44.0631C9.45447 50.2506 11.1492 55.935 14.166 61.2684C17.523 67.2057 22.0536 72.1296 27.3816 76.3344C32.4603 80.3421 37.9629 83.5956 44.1981 85.4802C44.6382 85.6134 45.1971 85.6314 45.6255 85.4829C58.8519 80.9046 69.0984 72.6462 76.0527 60.4701C78.9849 55.3356 80.3403 49.7385 80.2485 43.7751C80.1495 37.3716 80.226 30.9654 80.226 24.5601C80.226 21.8106 80.2341 19.062 80.2224 16.3125C80.2161 14.7195 79.6401 14.031 78.0786 13.716C77.1642 13.5315 76.2399 13.3983 75.3291 13.1985C68.2155 11.6379 61.7958 8.53108 55.8081 4.44868C55.4301 4.19128 54.9072 4.02478 54.45 4.02298C48.7773 3.99418 43.1037 4.07608 37.4328 3.96448C35.4996 3.92668 33.9489 4.42258 32.3388 5.48908C26.0955 9.62368 19.3203 12.5127 11.8719 13.6845C10.1952 13.9482 9.58137 14.7042 9.57957 16.425C9.57417 21.4551 9.57777 26.4861 9.57777 31.5162Z" fill="#0A567A"/>
<path d="M65.2831 44.2503H24.568C24.5347 44.4465 24.4726 44.6364 24.4726 44.8263C24.4789 50.2362 24.4753 55.647 24.5095 61.0569C24.5275 63.7839 25.2367 66.3597 26.3779 68.8248C26.4517 68.9832 26.53 69.1398 26.6065 69.2973C26.9125 69.9327 26.8297 70.5105 26.2627 70.9389C25.6435 71.4069 25.0288 71.2575 24.5383 70.7229C23.0164 69.066 21.4315 67.4568 20.0284 65.7036C16.3906 61.1559 13.6807 56.1177 12.5602 50.3478C12.2056 48.5226 11.9842 46.6425 11.9716 44.7849C11.9122 35.7777 11.9437 26.7696 11.9455 17.7624C11.9455 16.4457 12.1795 16.1226 13.489 15.8733C21.1741 14.4099 28.132 11.2419 34.6246 6.94983C35.0539 6.66543 35.6407 6.48633 36.1555 6.48363C41.8858 6.45123 47.617 6.47643 53.3473 6.44853C54.1474 6.44493 54.7999 6.64743 55.4623 7.08933C61.1107 10.8621 67.1767 13.7178 73.7998 15.3216C74.7619 15.5547 75.7348 15.7482 76.7059 15.9426C77.4493 16.0911 77.7994 16.5609 77.8516 17.2845C77.8705 17.5464 77.8579 17.811 77.8579 18.0738C77.8579 26.3799 77.7391 34.6878 77.8912 42.9903C78.0496 51.6177 75.0517 59.0391 69.7984 65.6757C68.4412 67.3902 66.8896 68.9526 65.4181 70.5762C64.9033 71.1441 64.2913 71.478 63.5704 70.9596C62.8711 70.4574 62.9404 69.8094 63.2914 69.0948C64.6639 66.2985 65.3344 63.3357 65.3335 60.2199C65.3317 55.1016 65.3344 49.9842 65.3335 44.8659C65.3335 44.6922 65.3056 44.5194 65.2831 44.2494V44.2503ZM26.6947 41.7447C26.6947 39.7359 26.6434 37.8126 26.71 35.8929C26.7712 34.1163 26.7514 32.2992 27.1231 30.5775C29.2129 20.9061 37.8952 14.9238 47.7052 16.2846C55.2157 17.3268 61.7596 23.6394 62.7505 31.1166C63.1546 34.1703 63.0079 37.2969 63.1069 40.3902C63.1204 40.8168 63.1087 41.2452 63.1087 41.7447C64.2661 41.7447 65.3137 41.7375 66.3604 41.7465C67.3558 41.7555 67.8643 42.1938 67.8589 43.1586C67.8247 49.5918 67.7716 56.0241 67.7104 62.4564C67.705 63.0684 67.597 63.6795 67.5367 64.2906C67.6222 64.3266 67.7086 64.3635 67.7941 64.3995C68.9641 62.5968 70.2205 60.8427 71.2879 58.9806C73.7773 54.6354 75.3091 49.9914 75.3091 44.9217C75.31 36.2637 75.3064 27.6048 75.3253 18.9468C75.3262 18.4077 75.157 18.1656 74.6386 18.0585C67.3135 16.5366 60.6463 13.473 54.3967 9.41943C53.9431 9.12513 53.3293 8.94333 52.7875 8.93973C47.5819 8.90463 42.3763 8.90013 37.1716 8.94243C36.5488 8.94783 35.8423 9.14943 35.3203 9.48603C29.1616 13.4595 22.5916 16.4628 15.4042 18.018C14.7211 18.1656 14.4664 18.387 14.4691 19.1412C14.5024 27.5949 14.4745 36.0486 14.5051 44.5014C14.5105 45.9558 14.6059 47.4264 14.8354 48.861C15.7444 54.5391 18.3526 59.4504 21.8158 63.9558C21.9211 64.0926 22.0705 64.1961 22.2793 64.3887C22.1614 63.1809 21.9715 62.1081 21.9652 61.0344C21.931 55.0971 21.9355 49.1589 21.9418 43.2207C21.9427 42.1902 22.4215 41.7519 23.4655 41.7438C24.5113 41.7357 25.5562 41.742 26.6947 41.742V41.7447ZM60.541 41.7015C60.541 38.8818 60.5572 36.1629 60.5302 33.444C60.523 32.7177 60.4411 31.9824 60.3025 31.2696C58.9381 24.2586 52.7632 18.8316 45.8809 18.5733C38.221 18.2853 31.7284 22.9221 29.7862 30.1392C28.7737 33.9003 29.3731 37.7568 29.2813 41.5719C29.2804 41.6133 29.3497 41.6574 29.3704 41.6826H34.9126C34.9126 38.8431 34.8757 36.0666 34.9234 33.2919C34.9684 30.6864 35.9683 28.4715 37.8853 26.6886C40.4125 24.3387 43.4779 23.9571 46.7215 24.3369C50.6626 24.7977 53.6605 27.4356 54.5965 31.2768C54.8017 32.1174 54.8665 33.0075 54.8782 33.876C54.9142 36.4698 54.8908 39.0654 54.8908 41.7024H60.5392L60.541 41.7015ZM37.5334 41.6844H52.3276C52.3276 38.6766 52.4509 35.7228 52.2934 32.7834C52.1323 29.7783 49.8868 27.3789 46.9537 26.8857C45.8431 26.6994 44.6785 26.7696 43.5418 26.811C40.6699 26.9163 37.7989 29.3148 37.5874 32.1777C37.3561 35.3115 37.5343 38.475 37.5343 41.6844H37.5334Z" fill="#0A567A"/>
<path d="M39.8962 65.2708C39.8962 64.8325 39.8782 64.3933 39.8998 63.9559C39.9691 62.4898 39.7909 61.2163 38.8081 59.9113C37.0747 57.6082 37.3087 54.3079 38.9845 51.9499C40.6666 49.5829 43.6348 48.4039 46.3672 49.0186C49.3219 49.6819 51.5971 51.9814 52.0444 54.883C52.391 57.1285 51.8392 59.1598 50.3605 60.931C50.1094 61.2316 49.9357 61.6942 49.9276 62.0866C49.8853 64.1899 49.9502 66.295 49.8962 68.3974C49.7936 72.4249 45.9289 74.8117 42.5278 72.9622C41.0509 72.1585 40.1185 70.9057 39.9898 69.211C39.8908 67.9051 39.97 66.5848 39.97 65.2717C39.9457 65.2717 39.9205 65.2717 39.8962 65.2717V65.2708ZM42.4252 64.8217C42.4252 65.9899 42.4189 67.159 42.427 68.3272C42.4378 69.9859 43.4521 71.0848 44.9407 71.0659C46.3834 71.0479 47.3734 69.949 47.3779 68.338C47.3851 66.0304 47.4004 63.7228 47.3689 61.4152C47.3581 60.6565 47.5867 60.0958 48.1492 59.5693C49.384 58.4137 49.8863 56.9467 49.5704 55.2781C49.1699 53.1649 47.4904 51.616 45.4771 51.3982C43.4215 51.1759 41.4811 52.2559 40.6081 54.1081C39.7135 56.0053 40.1644 58.0771 41.6782 59.6566C42.0742 60.0697 42.3388 60.7411 42.3937 61.3198C42.5035 62.4781 42.4261 63.6535 42.427 64.8217H42.4252Z" fill="#0A567A"/>
</svg>
