<svg width="263" height="263" viewBox="0 0 263 263" fill="none" xmlns="http://www.w3.org/2000/svg">
<g clip-path="url(#clip0_181_162)">
<path d="M201.968 123.862L199.765 131.706C206.67 134.67 211.912 139.889 217.962 143.917C219.63 145.029 221.236 146.236 222.817 147.466C227.605 151.193 227.929 157.496 223.477 161.629C220.173 164.698 216.801 167.693 213.371 170.613C207.386 175.709 199.905 176.353 192.953 172.488C191.66 171.768 190.363 171.058 188.839 170.219C188.537 171.296 188.309 172.107 188.081 172.918C181.908 194.894 175.747 216.872 169.557 238.843C167.681 245.522 163.054 249.106 156.666 248.86C155.607 248.818 154.538 248.554 153.512 248.266C123.264 239.781 93.0194 231.285 62.7746 222.79C55.3201 220.696 51.7163 214.395 53.7829 206.846C56.4639 197.046 59.2614 187.279 62.0089 177.497C62.2182 176.752 62.426 176.012 62.7113 174.997L60.0989 174.263C47.0869 170.608 34.0749 166.953 21.0629 163.298C15.461 161.724 13.4366 158.13 15.0011 152.56C20.9227 131.479 26.8442 110.398 32.7642 89.323C34.3132 83.8085 37.8173 81.815 43.3558 83.3588C56.374 86.9917 69.3813 90.6633 82.3933 94.3183C83.2086 94.5473 84.0295 94.7779 85.1555 95.0941C85.4361 94.095 85.6594 93.3001 85.8827 92.5053C91.998 70.7343 98.1007 48.9657 104.233 27.1994C106.109 20.5201 110.743 16.9323 117.124 17.1821C118.183 17.2236 119.25 17.4936 120.283 17.7779C150.529 26.2498 180.774 34.7455 211.019 43.2411C218.395 45.3132 222.037 51.565 220.065 58.9678C218.389 65.2564 216.566 71.5101 214.805 77.7808C214.595 78.526 214.385 79.2767 214.118 80.2262C215.082 80.5445 215.862 80.8351 216.66 81.0595C226.21 83.7478 235.762 86.4251 245.312 89.1135C250.637 90.6091 252.591 94.0884 251.107 99.3947C248.544 108.561 245.97 117.724 243.387 126.879C241.89 132.206 238.494 134.093 233.089 132.586C223.6 129.939 214.125 127.259 204.641 124.595C203.82 124.365 203.005 124.136 201.973 123.846L201.968 123.862ZM195.137 121.937C192.225 121.12 189.448 120.417 186.727 119.557C182.418 118.198 180.471 114.84 181.644 110.578C184.349 100.713 187.16 90.8778 189.922 81.023C190.542 78.815 191.828 77.0082 194.033 76.4426C195.754 76.0029 197.712 75.999 199.472 76.3148C202.11 76.7878 204.666 77.7022 207.345 78.4547C209.474 70.8757 211.564 63.6671 213.5 56.4149C214.259 53.5848 212.539 50.91 209.504 49.9743C205.798 48.8319 202.051 47.7913 198.286 46.8588C197.699 46.7117 196.644 47.1421 196.275 47.646C194.422 50.1746 192.686 52.7959 190.984 55.4265C189.815 57.2243 188.339 57.8341 186.222 57.2334C168.93 52.3465 151.631 47.4872 134.324 42.6555C132.227 42.0666 131.192 40.8526 131.123 38.6894C131.028 35.554 130.79 32.4198 130.748 29.2874C130.734 28.1222 130.32 27.6602 129.244 27.3761C125.907 26.4981 122.597 25.5207 119.277 24.6001C114.659 23.3149 112.196 24.6897 110.906 29.2824C104.792 51.0479 98.6787 72.8133 92.5649 94.5788C92.3602 95.3074 92.154 96.0416 91.8951 96.9634C92.9711 97.2657 93.7864 97.4947 94.6073 97.7253C107.619 101.38 120.63 105.017 133.636 108.694C139.157 110.257 141.052 113.63 139.529 119.074C133.576 140.289 127.617 161.503 121.653 182.715C120.102 188.235 116.646 190.123 111.037 188.553C98.0247 184.898 85.0183 181.245 72.0063 177.59L69.4494 176.871C69.1811 177.826 68.992 178.5 68.8012 179.179C66.1126 188.75 63.4224 198.328 60.7338 207.899C59.4018 212.641 60.7582 215.077 65.4894 216.406C95.174 224.744 124.859 233.082 154.549 241.422C159.141 242.712 161.619 241.306 162.91 236.708C169.314 213.91 175.69 191.104 182.172 168.328C182.692 166.497 182.284 165.626 180.839 164.464C153.244 142.211 139.22 113.485 139.527 78.0518C139.597 69.9184 144.414 63.7852 152.224 61.3517C156.264 60.0924 160.308 58.8638 164.37 57.6942C170.674 55.8737 176.004 59.4611 176.625 65.9842C177.322 73.3029 177.922 80.6241 178.539 87.9501C178.812 91.2189 177.793 93.9939 175.277 96.1756C173.331 97.8624 171.323 99.4958 169.521 101.33C168.891 101.975 168.312 103.29 168.541 104.051C171.913 115.331 177.576 125.378 185.454 134.166C186.753 135.615 191.419 134.853 191.977 133.08C193.104 129.472 194.055 125.809 195.147 121.922L195.137 121.937ZM40.1525 89.8201L21.577 155.95L114.458 182.04L133.034 115.91L40.1525 89.8201ZM197.356 166.549C199.026 167.572 200.971 168.124 202.92 167.963C204.986 167.787 206.903 166.926 208.66 165.442C211.94 162.671 215.119 159.788 218.303 156.912C220.116 155.272 220.027 154.097 217.995 152.597C212.287 148.397 206.605 144.169 200.8 140.103C199.91 139.477 198.37 139.337 197.258 139.566C194.831 140.07 192.495 140.992 190.106 141.679C186.565 142.697 182.732 141.644 180.277 138.9C171.736 129.36 165.577 118.482 161.817 106.259C160.593 102.288 161.574 98.9432 164.667 96.197C166.54 94.5373 168.506 92.9694 170.267 91.195C170.927 90.5287 171.527 89.375 171.464 88.488C170.959 81.235 170.309 73.9832 169.65 66.7409C169.434 64.3575 168.522 63.7916 166.162 64.4806C162.377 65.5792 158.607 66.7297 154.833 67.8732C149.223 69.567 146.559 72.9996 146.536 78.8771C146.449 102.365 153.098 122.642 166.217 139.786C173.687 149.555 183.026 157.747 193.519 164.19L197.362 166.55L197.356 166.549ZM137.802 29.8691C137.864 31.9055 137.83 33.6886 138.037 35.4441C138.098 35.9497 138.766 36.6613 139.287 36.8078C154.487 41.131 169.701 45.4045 184.932 49.6409C185.425 49.7796 186.314 49.642 186.577 49.2992C187.722 47.8041 188.704 46.1804 189.827 44.4828L137.807 29.8706L137.802 29.8691ZM216.119 105.653C223.71 102.02 231.073 98.4961 238.76 94.8189L202.431 84.6142C207.109 91.8003 211.546 98.6271 216.114 105.651L216.119 105.653ZM229.806 124.267C226.436 119.628 223.422 115.488 220.717 111.762C218.121 112.397 215.686 113.78 213.844 113.221C211.997 112.66 210.736 110.162 209.127 108.412C204.603 110.309 199.909 112.278 194.78 114.429L229.806 124.267ZM195.647 87.0799L189.474 109.055C195.009 106.733 200.252 104.537 205.591 102.296C202.869 98.0955 200.307 94.1361 197.732 90.179C197.109 89.2237 196.459 88.2788 195.648 87.0744L195.647 87.0799ZM237.042 122.345L243.193 100.447C237.565 103.143 232.303 105.666 226.842 108.278C230.283 113.026 233.552 117.536 237.042 122.345Z" fill="#025B7B"/>
<path d="M112.002 221.419C109.578 220.738 107.154 220.081 104.741 219.38C99.5393 217.853 96.6084 212.884 97.9508 207.913C99.3104 202.882 104.269 199.927 109.495 201.264C114.643 202.579 119.774 203.996 124.844 205.587C129.981 207.197 132.622 212.346 131.111 217.341C129.653 222.172 124.59 224.878 119.473 223.518C116.972 222.857 114.491 222.124 112 221.424L112.002 221.419ZM113.798 214.664C116.216 215.343 118.625 216.032 121.047 216.7C122.642 217.136 124.039 216.784 124.449 215.071C124.826 213.491 123.84 212.595 122.3 212.174C117.598 210.889 112.905 209.577 108.223 208.22C106.607 207.754 105.232 207.981 104.758 209.671C104.282 211.365 105.399 212.31 106.968 212.751C109.248 213.392 111.522 214.03 113.802 214.671L113.798 214.664Z" fill="#025B7B"/>
<path d="M47.6575 127.823C43.5454 118.282 48.2121 110.701 54.1799 107.649C60.9105 104.203 69.2283 106.355 73.4235 112.596C78.0751 119.513 76.439 127.361 69.0572 133.679C70.6291 135.603 72.3577 137.417 73.7317 139.471C77.2457 144.728 78.6199 150.551 77.7848 156.826C77.2988 160.495 75.7736 161.472 72.1653 160.471C60.678 157.268 49.1959 154.025 37.7147 150.8C35.2909 150.119 32.8618 149.478 30.4535 148.742C27.5103 147.844 26.6227 146.189 27.8146 143.373C31.0936 135.641 36.9553 130.772 45.0111 128.467C45.8309 128.233 46.6756 128.059 47.6504 127.827L47.6575 127.823ZM36.0908 142.947L70.795 152.695C71.0063 145.125 65.0788 137.659 57.0991 135.305C49.2233 132.985 40.252 136.207 36.0852 142.945L36.0908 142.947ZM53.4117 118.82C52.2313 123.086 54.6193 127.325 58.8845 128.523C63.1165 129.711 67.4434 127.324 68.6613 123.116C69.8916 118.864 67.3374 114.323 63.0853 113.206C58.8498 112.093 54.589 114.565 53.4117 118.82Z" fill="#025B7B"/>
<path d="M106.614 131.996C103.025 130.988 99.4247 130 95.8438 128.965C93.2266 128.206 92.117 126.596 92.6744 124.483C93.2381 122.349 95.0262 121.415 97.621 122.126C104.955 124.139 112.272 126.188 119.579 128.294C122.071 129.012 123.205 130.939 122.546 132.945C121.911 134.863 120.014 135.718 117.599 135.069C113.929 134.074 110.274 133.024 106.614 131.996Z" fill="#025B7B"/>
<path d="M102.505 146.6C98.8445 145.571 95.1832 144.567 91.5303 143.511C88.9906 142.774 87.9845 141.264 88.5499 139.166C89.1356 136.996 90.887 136.172 93.4899 136.897C100.809 138.941 108.132 140.992 115.443 143.063C117.854 143.746 118.996 145.455 118.469 147.457C117.933 149.492 116.118 150.394 113.688 149.735C109.952 148.721 106.231 147.652 102.504 146.605L102.505 146.6Z" fill="#025B7B"/>
<path d="M98.2499 161.366C94.6614 160.358 91.0682 159.366 87.4803 158.334C84.9058 157.593 83.8212 155.937 84.434 153.798C85.0281 151.726 86.7012 150.903 89.2351 151.597C96.6322 153.639 104.02 155.715 111.393 157.821C113.814 158.513 114.893 160.275 114.304 162.266C113.724 164.223 111.804 165.137 109.429 164.494C105.693 163.48 101.972 162.411 98.2444 161.364L98.2499 161.366Z" fill="#025B7B"/>
</g>
<defs>
<clipPath id="clip0_181_162">
<rect width="212.948" height="212.948" fill="white" transform="translate(57.7866 0.199219) rotate(15.6898)"/>
</clipPath>
</defs>
</svg>
