<svg width="90" height="90" viewBox="0 0 90 90" fill="none" xmlns="http://www.w3.org/2000/svg">
<path d="M45.6136 0C46.2625 0.5022 46.4848 1.1673 46.4578 1.9764C46.4209 3.0834 46.4632 4.1931 46.4434 5.301C46.4245 6.3756 45.907 7.0029 45.0862 7.0029C44.2654 7.0029 43.7479 6.3756 43.729 5.301C43.7092 4.1931 43.7515 3.0834 43.7146 1.9764C43.6876 1.1673 43.9108 0.5022 44.5588 0H45.6118L45.6136 0Z" fill="#0A567A"/>
<path d="M36.6589 68.8878H53.5168C53.5168 67.6962 53.4565 66.5073 53.5321 65.3265C53.6293 63.7929 53.6878 62.2332 54.0307 60.7464C54.4564 58.8969 55.693 57.5163 57.178 56.3418C58.9834 54.9144 60.8806 53.5626 62.4853 51.93C65.9197 48.4353 67.8358 44.1288 68.6026 39.3021C68.6386 39.0735 68.6863 38.8422 68.7637 38.6244C69.0175 37.9044 69.6331 37.5453 70.3414 37.7388C71.074 37.9386 71.4133 38.5038 71.3143 39.2058C70.7356 43.3053 69.3676 47.1177 67.0357 50.5593C65.0449 53.4978 62.5969 55.9881 59.5954 57.8889C57.1321 59.4486 56.035 61.6383 56.1673 64.5228C56.2267 65.8062 56.1961 67.095 56.1673 68.3811C56.1565 68.8689 56.2825 69.1704 56.7397 69.4224C57.7774 69.9921 58.3975 70.8975 58.4488 72.0972C58.5073 73.458 58.7161 74.8467 57.9394 76.1148C57.8611 76.2435 57.9196 76.5135 58.0024 76.6737C58.7584 78.1434 58.5928 79.7022 58.3381 81.2196C58.1122 82.5687 56.8756 83.5722 55.4887 83.6793C54.3547 83.7675 53.2117 83.7387 52.0732 83.7576C51.7294 83.7639 51.3856 83.7585 50.9203 83.7585C50.9203 84.6909 50.9302 85.527 50.9185 86.364C50.8861 88.6347 49.6954 89.8164 47.4463 89.8209C45.8092 89.8236 44.1721 89.8272 42.535 89.82C40.6009 89.811 39.3535 88.6365 39.2608 86.7006C39.2158 85.7709 39.2527 84.8367 39.2527 83.7594C38.8081 83.7594 38.4409 83.7648 38.0737 83.7585C36.9343 83.7387 35.7913 83.7729 34.6582 83.6775C33.112 83.547 31.8808 82.3167 31.7548 80.766C31.6396 79.3503 31.4461 77.9112 32.2147 76.5693C32.3164 76.392 32.1571 76.0329 32.059 75.7809C31.4731 74.2779 31.4695 72.7128 31.9429 71.2377C32.1751 70.5132 32.9806 69.975 33.5188 69.3459C33.6907 69.1443 33.9724 68.9229 33.9742 68.7078C33.9958 66.8088 34.0273 64.9062 33.9337 63.0099C33.8302 60.9084 32.7718 59.3289 30.9988 58.203C28.3087 56.4957 25.9642 54.3969 24.0553 51.8409C20.1358 46.5903 18.19 40.6962 18.7471 34.1397C19.6453 23.5611 25.0534 16.0236 34.6537 11.6001C36.7885 10.6164 39.2068 10.2267 41.5171 9.65701C42.5314 9.40681 43.192 9.88201 43.318 10.6848C43.4467 11.5092 42.9076 12.1104 41.842 12.2679C37.6885 12.8817 33.9103 14.4009 30.6046 16.9992C25.5079 21.0042 22.3363 26.1954 21.5857 32.6538C20.4373 42.5304 24.1111 50.2956 32.3335 55.8639C35.2351 57.8295 36.7111 60.4566 36.6616 63.9585C36.6382 65.5866 36.658 67.2156 36.658 68.886L36.6589 68.8878ZM45.1279 71.5752C41.9428 71.5752 38.7586 71.5716 35.5735 71.577C34.5673 71.5788 34.3846 71.766 34.3702 72.7389C34.3666 72.9729 34.3702 73.206 34.3702 73.44C34.3702 74.9151 34.4368 74.9844 35.8894 74.9844C41.8789 74.9853 47.8693 74.9844 53.8588 74.9844C55.1608 74.9844 55.8103 74.3205 55.8073 72.9927C55.8046 71.7003 55.6849 71.5752 54.4195 71.5743C51.3226 71.5725 48.2248 71.5743 45.1279 71.5743V71.5752ZM45.1801 77.6961C42.2578 77.6961 39.3355 77.6961 36.4132 77.6961C35.0452 77.6961 34.3639 78.3804 34.3693 79.749C34.3738 80.9874 34.4557 81.0684 35.7472 81.0684C41.7088 81.0693 47.6695 81.0621 53.6311 81.072C55.9729 81.0756 55.8181 81.1809 55.8055 78.8805C55.7992 77.8194 55.6741 77.6979 54.5599 77.697C51.4333 77.6934 48.3067 77.6961 45.1801 77.6961ZM41.9248 83.8116C41.9248 84.7593 41.8726 85.662 41.9599 86.5503C41.9833 86.7861 42.4279 87.1542 42.6898 87.1632C44.2909 87.2208 45.8965 87.2208 47.4967 87.1632C47.7559 87.1542 48.196 86.7798 48.2194 86.5413C48.3058 85.6539 48.2536 84.7521 48.2536 83.8116H41.9239H41.9248Z" fill="#0A567A"/>
<path d="M57.5127 42.4323C58.3407 43.2396 59.1885 44.0424 60.0102 44.8713C61.146 46.017 61.1487 46.9935 60.0327 48.1293C59.1102 49.068 58.1832 50.0013 57.2409 50.9193C56.1591 51.9741 55.197 51.9768 54.1116 50.9319C53.3961 50.2425 52.6833 49.5477 52.0083 48.8187C51.6789 48.4632 51.4125 48.4704 50.9526 48.5928C49.5792 48.9573 49.0185 49.7196 49.275 51.1542C49.3965 51.8337 49.3173 52.5546 49.2867 53.2557C49.2399 54.3312 48.5262 55.0629 47.4453 55.0863C45.8676 55.1196 44.2872 55.1205 42.7095 55.0845C41.6349 55.0602 40.9185 54.3195 40.887 53.2377C40.8546 52.1568 40.8537 51.0732 40.887 49.9932C40.9032 49.4829 40.6962 49.2939 40.2597 49.0266C39.0348 48.2769 38.1555 48.5298 37.3392 49.6359C36.9441 50.1705 36.4185 50.616 35.9208 51.0669C34.992 51.9075 34.0128 51.9345 33.1119 51.0867C32.0265 50.0652 30.9717 49.0086 29.9475 47.9259C29.0646 46.9917 29.1006 46.0206 29.9925 45.0459C30.4065 44.5932 30.852 44.1684 31.2912 43.74C31.7304 43.3116 32.1795 42.8949 32.643 42.4548C32.3784 41.7879 32.1705 41.1552 31.8726 40.5684C31.7736 40.374 31.4469 40.1958 31.2174 40.1868C30.1959 40.1454 29.1717 40.1769 28.1484 40.167C26.6643 40.1526 25.9344 39.4677 25.8957 37.9836C25.8597 36.6102 25.8579 35.235 25.8966 33.8616C25.938 32.4027 26.6238 31.7511 28.0809 31.7241C29.0745 31.7052 30.0699 31.6962 31.0626 31.7295C31.5405 31.7457 31.7817 31.6062 31.9599 31.1364C32.6007 29.4426 32.6205 29.4516 31.3488 28.1781C30.8529 27.6813 30.3336 27.2052 29.8737 26.6778C29.1231 25.8174 29.0817 24.9039 29.8467 24.0732C30.9159 22.914 32.0319 21.7926 33.1911 20.7234C34.0974 19.8873 35.0469 19.9683 35.9991 20.8683C36.7641 21.591 37.5111 22.3344 38.2284 23.1039C38.5443 23.4432 38.7918 23.3712 39.2013 23.2767C40.6593 22.9392 41.1318 22.0797 40.8915 20.6577C40.7952 20.0889 40.8708 19.4904 40.8771 18.9063C40.8915 17.5581 41.5242 16.7985 42.8598 16.7346C44.3475 16.6635 45.8442 16.6599 47.331 16.7364C48.6612 16.8048 49.2831 17.568 49.293 18.927C49.3002 19.9503 49.3218 20.9745 49.2822 21.9969C49.2642 22.464 49.4442 22.6656 49.8582 22.806C50.409 22.9923 50.9391 23.2371 51.5961 23.5053C52.3899 22.6881 53.208 21.816 54.0594 20.9772C55.1754 19.8783 56.1384 19.8774 57.2598 20.9673C58.2246 21.9042 59.1786 22.8528 60.1119 23.8212C61.1208 24.8688 61.1145 25.8363 60.1056 26.8893C59.3982 27.6282 58.6782 28.3572 57.9303 29.0547C57.5991 29.3634 57.6225 29.6109 57.7305 30.0312C58.0932 31.4478 58.905 31.9851 60.3585 31.743C61.0677 31.6251 61.8183 31.7061 62.5455 31.7592C63.4869 31.8276 64.1583 32.4171 64.2015 33.363C64.2771 35.0244 64.2915 36.693 64.2276 38.3544C64.1835 39.4875 63.4284 40.1265 62.2629 40.1625C61.2117 40.1949 60.1569 40.2012 59.1057 40.158C58.5693 40.1355 58.3254 40.3218 58.1769 40.8267C58.023 41.3514 57.7602 41.8437 57.5091 42.4359L57.5127 42.4323ZM34.6914 23.292C33.8733 24.0336 33.1272 24.7095 32.3244 25.4367C33.2415 26.334 34.1262 27.2259 35.0415 28.0845C35.694 28.6965 35.7561 29.3445 35.3889 30.1365C34.938 31.1112 34.5177 32.1039 34.1604 33.1164C33.8418 34.0191 33.2847 34.4205 32.3235 34.3881C31.1049 34.3458 29.8845 34.3782 28.6227 34.3782V37.5075C29.8557 37.5075 31.0455 37.503 32.2362 37.5084C33.5286 37.5147 33.7833 37.728 34.2063 38.9187C34.5177 39.7944 34.8705 40.6584 35.2656 41.499C35.8272 42.6942 35.7993 43.0236 34.8525 43.9695C34.0119 44.8083 33.1632 45.639 32.4774 46.3167C33.2307 47.1546 33.8859 47.8836 34.6212 48.7008C35.5131 47.7783 36.3978 46.8891 37.251 45.9702C37.8639 45.3105 38.5227 45.2619 39.3048 45.6381C40.1166 46.0278 40.9392 46.4067 41.7879 46.7019C43.3755 47.2545 43.506 47.3922 43.506 49.0599C43.506 50.1858 43.506 51.3117 43.506 52.4097H46.6659C46.6659 51.0786 46.6956 49.797 46.656 48.5181C46.629 47.6442 47.0448 47.1807 47.8188 46.8909C48.8259 46.5147 49.8348 46.1313 50.8014 45.666C51.6618 45.252 52.3395 45.3321 52.9992 46.0395C53.8479 46.9494 54.747 47.8125 55.4958 48.5658C56.3211 47.8188 57.0465 47.1609 57.8637 46.422C56.925 45.5148 56.0313 44.6355 55.1196 43.7751C54.4725 43.164 54.4176 42.5052 54.7902 41.7168C55.224 40.7979 55.6218 39.8574 55.9683 38.9025C56.3886 37.7478 56.646 37.5174 57.8646 37.5093C59.0832 37.5012 60.3018 37.5075 61.5438 37.5075V34.3782C60.3036 34.3782 59.1111 34.3809 57.9195 34.3782C56.7126 34.3755 56.3805 34.1127 55.9836 33.0174C55.647 32.0895 55.2798 31.1697 54.8676 30.2733C54.3699 29.1897 54.3879 28.8414 55.2123 28.0197C56.0934 27.1413 56.9916 26.2791 57.8619 25.4295C57.0726 24.6231 56.3823 23.9175 55.6281 23.1471C54.7362 24.0561 53.8452 24.9408 52.9812 25.8507C52.3557 26.5095 51.705 26.6445 50.8626 26.2278C49.9014 25.7526 48.9006 25.3422 47.8872 24.9903C47.0142 24.687 46.6182 24.1758 46.6542 23.238C46.7019 21.9924 46.6659 20.7432 46.6659 19.5066H43.506C43.506 20.8341 43.4808 22.0887 43.515 23.3424C43.5384 24.2082 43.146 24.6771 42.3504 24.9606C41.3388 25.3206 40.3281 25.7076 39.3723 26.1936C38.5038 26.6355 37.8333 26.5338 37.179 25.839C36.3186 24.9264 35.4267 24.0426 34.6905 23.2929L34.6914 23.292Z" fill="#0A567A"/>
<path d="M48.2589 9.56616C52.2072 10.0549 55.7955 11.2996 59.0652 13.3831C65.3535 17.3899 69.3054 23.0644 70.9668 30.3301C71.1351 31.0681 71.243 31.8205 71.3484 32.5711C71.4564 33.337 71.0018 33.994 70.2872 34.1632C69.614 34.3225 68.9481 33.8851 68.7438 33.0841C68.2758 31.2535 68.031 29.3401 67.3542 27.5932C64.1178 19.2313 58.0472 14.1751 49.2353 12.4354C48.779 12.3454 48.3119 12.2878 47.8673 12.1564C47.1104 11.9323 46.7306 11.3275 46.862 10.6435C46.9916 9.96846 47.5974 9.53556 48.2589 9.56796V9.56616Z" fill="#0A567A"/>
<path d="M12.688 34.5808C13.3603 34.5808 14.0335 34.5547 14.704 34.588C15.5995 34.633 16.1323 35.1523 16.1377 35.9218C16.1431 36.7057 15.649 37.2205 14.7211 37.2493C13.3486 37.2916 11.9734 37.2889 10.6009 37.2502C9.71347 37.225 9.14557 36.667 9.14017 35.9389C9.13477 35.1712 9.73777 34.6204 10.6702 34.5853C11.3416 34.5601 12.0148 34.5799 12.6862 34.5808H12.688Z" fill="#0A567A"/>
<path d="M77.5593 34.5808C78.2316 34.5808 78.9048 34.5547 79.5753 34.588C80.451 34.6321 81.0288 35.1856 81.0342 35.9218C81.0396 36.6499 80.4717 37.2214 79.5897 37.2475C78.2181 37.288 76.8429 37.2898 75.4713 37.2502C74.5371 37.2232 74.0403 36.7192 74.0376 35.9371C74.0349 35.1343 74.5884 34.6204 75.5433 34.5844C76.2147 34.5592 76.887 34.5799 77.5593 34.5808Z" fill="#0A567A"/>
<path d="M25.184 57.2437C24.9113 57.7072 24.7646 58.1032 24.4973 58.3849C23.5937 59.3398 22.6568 60.265 21.7127 61.1821C21.0035 61.8715 20.288 61.9156 19.7012 61.3522C19.1288 60.8032 19.145 60.0265 19.8065 59.3398C20.7596 58.3498 21.7352 57.3823 22.7243 56.4283C23.1482 56.0197 23.6972 55.7704 24.2318 56.1502C24.6035 56.4139 24.8519 56.8504 25.184 57.2437Z" fill="#0A567A"/>
<path d="M69.6143 61.9137C69.1436 61.6185 68.7611 61.4556 68.4785 61.1874C67.5254 60.2802 66.5975 59.3478 65.6822 58.4019C65.0153 57.7125 64.9865 56.9475 65.5571 56.3859C66.1232 55.8288 66.8297 55.8324 67.5038 56.4777C68.5172 57.4479 69.545 58.4136 70.4495 59.4801C70.7375 59.8203 70.8203 60.5259 70.688 60.9723C70.5773 61.3449 70.0157 61.5834 69.6134 61.9137H69.6143Z" fill="#0A567A"/>
<path d="M25.1219 14.6889C24.8645 15.0129 24.6512 15.5295 24.2921 15.6672C23.8961 15.8193 23.2085 15.804 22.9223 15.5511C21.7433 14.5116 20.6363 13.383 19.5698 12.2247C19.1036 11.7189 19.1774 11.0781 19.6688 10.5615C20.1602 10.0449 20.8217 9.93418 21.3185 10.3851C22.5254 11.4813 23.6513 12.6675 24.7844 13.8411C24.9491 14.0121 24.9788 14.3145 25.121 14.6871L25.1219 14.6889Z" fill="#0A567A"/>
<path d="M66.3319 15.9417C66.0304 15.7113 65.5192 15.5115 65.3743 15.1605C65.2141 14.7735 65.2078 14.0859 65.4517 13.8096C66.511 12.6099 67.6522 11.4759 68.8357 10.3959C69.337 9.93873 69.9913 10.0458 70.4908 10.5453C70.9624 11.0169 71.0956 11.6496 70.6609 12.1284C69.5647 13.3353 68.3866 14.4684 67.2157 15.606C67.0465 15.7698 66.7405 15.7923 66.331 15.9417H66.3319Z" fill="#0A567A"/>
<path d="M52.1273 35.8857C52.1525 39.7611 49.0349 42.9417 45.173 42.9804C41.2589 43.02 38.0756 39.8862 38.0504 35.9685C38.0252 32.0634 41.1923 28.8738 45.0902 28.8774C48.9575 28.881 52.1021 32.013 52.1273 35.8857ZM45.1136 31.563C42.6737 31.5558 40.7027 33.5034 40.6973 35.928C40.6919 38.3112 42.7376 40.3596 45.1055 40.3398C47.4572 40.3209 49.4561 38.3274 49.4777 35.9793C49.5002 33.5565 47.5373 31.5693 45.1136 31.5621V31.563Z" fill="#0A567A"/>
</svg>
