<svg width="84" height="86" viewBox="0 0 84 86" fill="none" xmlns="http://www.w3.org/2000/svg">
<path d="M23.6113 13.2026C23.6113 11.5631 23.6113 9.88787 23.6113 8.21263C23.6113 7.33844 23.5996 6.4651 23.6149 5.59092C23.6581 3.19541 25.0891 1.20808 27.349 0.384915C29.6773 -0.46291 32.1388 0.109393 33.9001 1.90879C34.036 2.0474 34.1728 2.18516 34.2988 2.31272C38.0806 0.576249 40.1848 0.891739 42.8614 3.56617C46.4641 1.48275 49.4494 2.67328 51.0991 4.56111C52.6498 4.26433 54.0709 3.71414 55.456 3.78387C58.6168 3.94289 60.7381 6.28908 60.8083 9.38615C60.8533 11.3896 60.8164 13.3948 60.8164 15.4629C61.9864 15.6653 63.0907 15.8192 64.177 16.0505C76.1946 18.611 84.4836 28.8793 83.8221 40.4852C83.4846 46.3937 81.1662 51.5784 76.7463 55.7878C67.3864 64.7014 57.9643 73.5564 48.5269 82.396C44.827 85.8613 39.1696 85.9387 35.4913 82.5023C25.8955 73.5377 16.2197 64.6427 6.86777 55.4553C-6.1813 42.635 0.298686 21.0584 18.4274 16.3091C18.9512 16.1721 19.4795 15.7725 19.8242 15.36C20.6917 14.3209 21.4774 13.8047 23.6122 13.2035L23.6113 13.2026ZM40.5385 24.7558C42.0073 26.892 42.6319 29.1157 42.1495 31.5682C41.911 32.7825 41.2351 33.3991 40.2199 33.2681C39.1768 33.1346 38.7043 32.3965 38.8708 31.1558C38.8924 30.9951 38.9302 30.8369 38.9482 30.6762C39.1507 28.9414 38.6584 27.3929 37.4236 26.1071C37.1248 25.7959 36.5704 25.5807 36.1168 25.5509C34.9243 25.4727 33.7201 25.5535 32.5231 25.511C31.3594 25.4702 30.679 24.7533 30.8257 23.766C30.9625 22.8408 31.615 22.4428 32.5456 22.4301C34.0522 22.4088 35.5606 22.4573 37.0654 22.4029C38.7745 22.3416 40.1119 20.9189 40.075 19.2956C40.0381 17.7054 38.6863 16.3125 37.0438 16.3048C32.9695 16.2861 28.8943 16.2972 24.8209 16.3456C22.9696 16.3677 22.1713 16.8958 22.0363 18.6637C21.7852 21.9445 21.6097 25.2508 21.7501 28.5332C21.895 31.9245 23.3647 34.968 25.333 37.8049C28.1482 41.8612 31.0012 45.9166 31.3594 51.0376H54.304C54.538 49.3776 54.709 47.7381 55.0096 46.1198C55.6891 42.4598 56.725 38.8347 57.0769 35.1491C57.5125 30.5869 57.4027 25.9778 57.5269 21.3884C57.535 21.0788 57.5278 20.7693 57.5278 20.3475C54.9115 21.3918 52.6732 20.9019 50.6914 19.2514C48.6385 20.9895 46.384 21.3509 43.8316 20.3271C43.3636 22.2107 42.3718 23.709 40.5367 24.7558H40.5385ZM60.5626 66.5629C65.3209 62.0967 69.9802 57.8993 74.4288 53.5105C82.3245 45.7227 82.5594 33.7554 75.0688 25.6249C71.341 21.5788 66.5971 19.3075 60.8173 18.6757C60.8173 19.1059 60.8173 19.4529 60.8173 19.799C60.8173 23.1631 60.9379 26.5331 60.7804 29.8913C60.6445 32.7876 60.3043 35.6866 59.8507 38.5557C59.2198 42.5474 58.3891 46.5102 57.6826 50.4916C57.6313 50.7791 57.8059 51.3071 58.0273 51.4007C59.9119 52.1958 60.5824 53.6057 60.5689 55.4561C60.5455 58.7556 60.5626 62.0559 60.5626 65.3553C60.5626 65.6981 60.5626 66.0408 60.5626 66.5629ZM42.7624 54.2707C38.3812 54.2707 34.0009 54.269 29.6197 54.2715C28.2724 54.2724 28.2004 54.3387 28.1995 55.5616C28.1968 60.5431 28.1833 65.5246 28.2247 70.5052C28.2283 70.9551 28.4848 71.5095 28.8196 71.8335C31.6186 74.5394 34.4608 77.2062 37.2967 79.8772C40.1686 82.5823 43.6615 82.6078 46.5397 79.9265C49.9516 76.7478 53.3554 73.5598 56.7268 70.342C57.0625 70.0214 57.3199 69.4686 57.3244 69.0213C57.3676 64.5254 57.3523 60.0294 57.3496 55.5335C57.3496 54.3566 57.2641 54.2724 56.0068 54.2707C51.5914 54.2664 47.1769 54.269 42.7615 54.269L42.7624 54.2707ZM28.1068 51.1277C27.8062 49.9559 27.7162 48.7101 27.1771 47.6743C25.7335 44.9013 24.0775 42.2268 22.5421 39.4954C21.5035 37.6475 20.3624 35.8294 19.5569 33.8906C17.7398 29.5197 18.1727 24.9268 18.386 20.3713C18.3968 20.1349 18.3878 19.8976 18.3878 19.5805C17.8388 19.7692 17.387 19.9053 16.9496 20.0771C2.72148 25.6462 -1.17281 43.0117 9.51557 53.5283C14.3513 58.2862 19.3688 62.8791 24.3079 67.5425C24.4528 67.6794 24.6454 67.7721 24.9109 67.9482C24.9109 63.7686 24.9559 59.7259 24.8929 55.684C24.8587 53.5028 25.6327 51.9084 28.1077 51.1277H28.1068ZM49.0768 11.6133C49.0768 10.5154 49.0939 9.41676 49.0732 8.31892C49.0417 6.66154 48.0238 5.56371 46.5649 5.57816C44.971 5.59432 43.909 6.62838 43.8847 8.28321C43.8514 10.5112 43.8541 12.7409 43.8829 14.9689C43.9027 16.5506 45.0178 17.6441 46.5055 17.6229C47.9959 17.6016 49.0462 16.5038 49.0741 14.9068C49.093 13.809 49.0777 12.7103 49.0777 11.6124L49.0768 11.6133ZM52.3744 12.3267C52.3744 13.36 52.3429 14.394 52.3816 15.4255C52.4356 16.8456 53.4805 17.8278 54.8935 17.8465C56.2975 17.8652 57.4495 16.9111 57.4981 15.5012C57.571 13.3727 57.5728 11.2391 57.4954 9.11147C57.4441 7.71176 56.2606 6.74658 54.871 6.77804C53.4733 6.80951 52.4293 7.8121 52.3798 9.22798C52.3429 10.2595 52.3726 11.2935 52.3744 12.3267ZM32.0704 13.1703C32.0704 10.5154 32.1037 7.96857 32.0569 5.42254C32.0326 4.13082 30.8896 3.09421 29.6521 3.09336C28.1995 3.09166 27.0403 4.09596 26.9746 5.50928C26.9161 6.76614 26.9566 8.02639 26.9548 9.2858C26.953 10.5665 26.9548 11.848 26.9548 13.1703H32.0713H32.0704ZM40.5691 13.7358C40.5691 11.4696 40.6069 9.08086 40.5547 6.69471C40.525 5.3239 39.3883 4.29324 38.1004 4.3179C36.547 4.34682 35.4229 5.34516 35.3779 6.7976C35.3401 8.02469 35.368 9.25434 35.3671 10.4823C35.3671 11.3743 35.3671 12.2664 35.3671 13.0139C37.1689 13.2639 38.8051 13.4909 40.57 13.7358H40.5691Z" fill="#0A567A"/>
</svg>
