<svg width="90" height="90" viewBox="0 0 90 90" fill="none" xmlns="http://www.w3.org/2000/svg">
<g clip-path="url(#clip0_76_1693)">
<path d="M59.4092 0C59.5667 0.0648 59.7197 0.1431 59.8817 0.1917C63.8147 1.3788 65.2943 5.7501 62.858 9.0432C60.4559 12.2904 58.0277 15.5178 55.613 18.7551C55.4456 18.9792 55.2935 19.215 55.091 19.5102C58.6109 20.3985 60.2975 22.5873 60.1184 26.1252C64.4285 27.3843 65.3429 28.4076 65.8028 32.4702C66.3671 32.5737 66.9485 32.6313 67.5011 32.7888C71.3513 33.8868 72.8849 38.3436 70.5035 41.5683C67.4957 45.6408 64.4537 49.689 61.4288 53.7489C61.2938 53.9298 61.1723 54.1215 60.9437 54.4545C61.3847 54.4545 61.6889 54.4545 61.9931 54.4545C66.503 54.4554 71.0138 54.4293 75.5237 54.4662C78.7934 54.4932 81.3314 56.6226 81.9866 59.8203C82.091 60.3297 82.0838 60.8679 82.0847 61.3926C82.0901 68.5971 82.0055 75.8025 82.1207 83.0052C82.1855 87.0354 78.9131 90.2259 75.1097 89.9865C73.9136 89.9109 72.7085 89.982 71.5079 89.9721C70.5818 89.964 69.9734 89.4222 69.9833 88.6428C69.9932 87.8661 70.6007 87.3495 71.5385 87.3432C72.7976 87.3351 74.0576 87.3549 75.3167 87.3378C77.7584 87.3045 79.4405 85.6098 79.4423 83.1627C79.4495 75.87 79.4495 68.5782 79.4423 61.2855C79.4396 58.7781 77.7584 57.1113 75.2465 57.1095C69.8582 57.105 64.469 57.0969 59.0807 57.1293C58.6361 57.132 58.1114 57.3282 57.7631 57.6081C50.0051 63.8478 38.8901 63.8361 31.151 57.5775C30.8243 57.3129 30.3275 57.1311 29.9081 57.1284C24.8708 57.0978 19.8335 57.1068 14.7962 57.1095C12.2213 57.1113 10.5554 58.7628 10.5536 61.3269C10.5482 68.5611 10.55 75.7944 10.5536 83.0286C10.5545 85.6899 12.2096 87.3387 14.897 87.3396C27.9587 87.3441 41.0204 87.3414 54.0821 87.3414C57.7433 87.3414 61.4036 87.3369 65.0648 87.345C65.9405 87.3468 66.5021 87.8796 66.5048 88.6527C66.5075 89.4249 65.9432 89.9469 65.0738 89.973C64.8686 89.9793 64.6634 89.9739 64.4591 89.9739C60.3587 89.9739 56.2592 89.9739 52.1588 89.9739C39.7118 89.9739 27.2657 89.9739 14.8187 89.9739C10.7093 89.9739 7.92199 87.219 7.91479 83.1132C7.90129 75.8502 7.98409 68.5863 7.88059 61.3242C7.82749 57.6495 10.7903 54.3276 14.807 54.4302C18.8462 54.5337 22.8899 54.4527 26.9309 54.4527C27.2405 54.4527 27.5501 54.4527 28.0127 54.4527C27.7175 54.0351 27.5267 53.7543 27.3251 53.4825C25.2614 50.6988 24.2714 47.4723 23.4137 44.1765C21.8189 38.0484 20.2403 31.9149 18.5231 25.821C17.6843 22.8456 19.7696 19.1376 22.2194 18.0225C24.113 17.1603 25.9022 17.6544 27.2963 19.5111C28.7021 21.3831 30.071 23.2821 31.4597 25.1676C32.2868 26.2908 33.1202 27.4086 34.0184 28.6209C35.5754 26.5617 37.0532 24.6051 38.5328 22.6494C39.5921 21.249 40.646 19.8441 41.7134 18.4491C42.3137 17.6643 43.121 17.4852 43.751 17.9703C44.4224 18.4878 44.4692 19.2222 43.8437 20.0538C41.3633 23.3523 38.8856 26.6526 36.3827 29.9331C35.0426 31.6899 32.9222 31.644 31.5803 29.8395C29.4851 27.0216 27.4196 24.1812 25.3334 21.3561C24.3686 20.0493 23.4254 19.9881 22.3418 21.2157C21.2438 22.4604 20.7506 23.8131 21.2339 25.5609C23.1653 32.535 24.8177 39.591 26.9111 46.5147C29.1638 53.9658 34.418 58.3281 42.1058 59.3892C49.0754 60.3513 54.8219 57.8124 59.1455 52.2882C62.3009 48.2562 65.2952 44.0973 68.3516 39.9879C69.3947 38.5857 69.1202 36.8352 67.7279 35.8218C66.3869 34.8453 64.6778 35.1315 63.6401 36.5166C62.3585 38.2257 61.0877 39.9429 59.8052 41.652C59.1068 42.5826 58.3436 42.8112 57.665 42.3126C56.9585 41.7942 56.9486 41.0301 57.6353 40.0869C57.7217 39.969 57.8099 39.852 57.8981 39.735C59.3858 37.7406 60.8789 35.7516 62.3585 33.7518C63.4745 32.2425 63.254 30.5775 61.8194 29.5263C60.4361 28.5129 58.7684 28.7982 57.6794 30.2481C56.4842 31.8393 55.307 33.444 54.1037 35.0289C53.8796 35.3241 53.5808 35.7435 53.2883 35.7669C52.7906 35.8074 52.1435 35.7291 51.7898 35.4294C51.2426 34.965 51.3389 34.2738 51.7763 33.6861C53.4188 31.4793 55.0649 29.2752 56.7065 27.0675C57.6002 25.8651 57.6929 24.8643 57.0242 23.7375C56.3672 22.6314 55.2053 22.0185 53.8895 22.3236C53.264 22.4694 52.6079 22.9077 52.1822 23.4009C51.2102 24.5286 50.3786 25.7769 49.4777 26.9667C48.854 27.7911 48.1286 27.9558 47.4491 27.4527C46.7993 26.9712 46.7435 26.1594 47.3384 25.3611C51.7988 19.3779 56.2592 13.3947 60.7322 7.4214C61.5026 6.3927 61.598 5.3352 60.995 4.2282C59.9501 2.3094 57.4157 2.1087 56.0981 3.843C53.3891 7.4088 50.6936 10.9845 48.0008 14.5629C47.5922 15.1065 47.1467 15.561 46.4024 15.3945C45.3602 15.1614 45.0362 14.058 45.7454 13.1049C47.1953 11.1555 48.6686 9.2241 50.132 7.2855C51.1724 5.9076 52.2569 4.5603 53.2442 3.1446C54.2792 1.6623 55.5005 0.4716 57.3005 0C58.0034 0 58.7063 0 59.4092 0Z" fill="#0A567A"/>
<path d="M40.9572 -7.65625e-05C41.5953 0.369823 41.8464 0.917024 41.8779 1.65952C41.9364 3.02572 42.1092 4.38742 42.1839 5.75362C42.2334 6.65812 41.7528 7.20892 40.9779 7.26382C40.1796 7.32052 39.6324 6.77512 39.5514 5.84992C39.4425 4.60252 39.3489 3.35242 39.2103 2.10772C39.1185 1.28422 39.2427 0.560623 39.9033 -0.000976562H40.9581L40.9572 -7.65625e-05Z" fill="#0A567A"/>
<path d="M42.1918 79.9255C41.5753 80.1928 40.9615 79.9129 40.66 79.2685C40.3891 78.6889 40.1713 78.0796 39.9868 77.4667C39.8473 77.0023 39.6196 76.8151 39.1166 76.8259C37.6541 76.8574 36.1906 76.8565 34.7281 76.8259C34.2313 76.8151 33.992 76.987 33.8525 77.4586C33.6797 78.0445 33.4564 78.6196 33.2062 79.1776C32.8813 79.903 32.156 80.1919 31.4639 79.9192C30.8348 79.6717 30.4838 78.9589 30.7385 78.256C32.2901 73.9792 33.8597 69.7096 35.4329 65.4409C35.6813 64.7659 36.2239 64.4131 36.9223 64.4068C37.6207 64.4005 38.1841 64.7434 38.4298 65.4148C40.0048 69.7141 41.561 74.0197 43.1225 78.3244C43.1621 78.4333 43.1837 78.5485 43.2133 78.661C43.4717 79.5367 42.1918 79.9255 42.1918 79.9255ZM37.0321 69.3748C36.9664 69.3748 36.8998 69.373 36.8341 69.373C36.2608 70.9381 35.6875 72.5041 35.0989 74.1106H38.7502C38.1571 72.4753 37.5946 70.9246 37.0321 69.3748Z" fill="#0A567A"/>
<path d="M52.0184 80.0117C49.8674 79.9667 48.1835 79.2638 46.8074 77.8589C46.118 77.1542 46.0757 76.4396 46.6508 75.8474C47.2295 75.2525 47.9513 75.2705 48.656 75.9536C49.6316 76.8977 50.7728 77.4035 52.1345 77.3216C52.5035 77.2991 52.9706 77.2532 53.2046 77.0255C53.6555 76.5863 54.1307 76.0571 54.3035 75.4775C54.5096 74.7827 53.9525 74.2544 53.3468 73.9718C51.9464 73.3184 50.5226 72.7145 49.0979 72.1142C48.008 71.6552 47.3951 70.8164 47.1152 69.7094C46.5104 67.3109 48.0539 64.9934 50.5676 64.5182C52.5962 64.1348 54.3863 64.7207 55.9991 65.9231C56.6885 66.437 56.8199 67.247 56.3843 67.8473C55.9424 68.4566 55.1621 68.5664 54.4412 68.0732C53.5241 67.445 52.5584 66.9896 51.4181 67.1273C51.0527 67.1714 50.5919 67.2398 50.3714 67.4792C50.0474 67.8311 49.7315 68.3459 49.7315 68.7914C49.7315 69.1289 50.1626 69.6014 50.519 69.7787C51.5882 70.3106 52.7195 70.7138 53.8166 71.1908C55.2971 71.8343 56.4977 72.7838 56.9207 74.4227C57.575 76.9562 55.6229 79.6013 52.8788 79.9496C52.5314 79.9937 52.1795 80.0018 52.0166 80.0135L52.0184 80.0117Z" fill="#0A567A"/>
<path d="M22.0222 77.337C23.3416 77.337 24.5701 77.3298 25.7977 77.3388C26.8318 77.3469 27.4078 77.8167 27.4303 78.6438C27.4546 79.5348 26.9101 80.0055 25.7923 80.0145C24.1534 80.0271 22.5145 80.0316 20.8765 80.0127C19.7722 79.9992 19.3213 79.5564 19.3186 78.471C19.3078 74.3157 19.3078 70.1604 19.3186 66.0051C19.3213 64.9224 19.7758 64.4859 20.8837 64.476C22.5514 64.4607 24.22 64.4616 25.8877 64.476C26.9218 64.485 27.4573 64.98 27.4294 65.8458C27.4042 66.6585 26.857 67.1157 25.8733 67.122C24.6169 67.1301 23.3605 67.1238 22.0375 67.1238V70.9362C22.9708 70.9362 23.9248 70.9308 24.8788 70.9389C25.2586 70.9416 25.6474 70.9254 26.0146 71.0019C26.7076 71.1477 27.0514 71.6391 27.0496 72.3294C27.0469 73.0521 26.4637 73.5921 25.6501 73.6101C24.4576 73.6371 23.2642 73.6173 22.0213 73.6173V77.3361L22.0222 77.337Z" fill="#0A567A"/>
<path d="M65.285 69.6574C66.2507 68.1769 67.1399 66.8053 68.0381 65.4391C68.651 64.5058 69.3584 64.2637 70.0703 64.7245C70.7822 65.1844 70.8722 65.9746 70.2917 66.8737C69.1982 68.5675 68.075 70.2415 67.0085 71.9515C66.7781 72.3205 66.6404 72.8065 66.6287 73.243C66.5846 74.9089 66.6116 76.5766 66.6071 78.2443C66.6044 79.4062 66.1364 80.011 65.2562 80.0029C64.3751 79.9948 63.9539 79.4233 63.9539 78.2137C63.9539 76.5469 63.9854 74.8783 63.9503 73.2124C63.9413 72.8038 63.8117 72.3466 63.5948 72.001C62.5085 70.2694 61.37 68.5693 60.2585 66.853C59.6762 65.9539 59.7518 65.161 60.4421 64.7065C61.1504 64.2403 61.8893 64.4788 62.4878 65.3869C63.404 66.7747 64.3103 68.1688 65.2841 69.6574H65.285Z" fill="#0A567A"/>
<path d="M38.6233 8.62833C38.3497 9.00093 38.1562 9.53193 37.8061 9.67143C37.3858 9.83973 36.6838 9.86763 36.3625 9.62013C34.8586 8.46363 33.4231 7.21443 32.0065 5.94903C31.4593 5.46033 31.462 4.79973 31.8949 4.20393C32.3134 3.62883 33.1171 3.47673 33.6877 3.93933C35.1637 5.13543 36.6064 6.37203 38.0356 7.62393C38.2786 7.83723 38.3839 8.20713 38.6242 8.62833H38.6233Z" fill="#0A567A"/>
<path d="M34.5044 11.4155C34.7726 11.4155 34.9769 11.4101 35.1821 11.4164C35.9525 11.4416 36.3611 11.8853 36.4628 12.6062C36.5591 13.2893 36.0443 13.9634 35.3261 14.0336C33.7547 14.1875 32.1797 14.3135 30.6029 14.3972C29.7803 14.4404 29.2268 13.9067 29.1899 13.1705C29.153 12.428 29.6534 11.8601 30.4589 11.78C31.8269 11.645 33.1967 11.5316 34.5044 11.4155Z" fill="#0A567A"/>
</g>
<defs>
<clipPath id="clip0_76_1693">
<rect width="90" height="90" fill="white"/>
</clipPath>
</defs>
</svg>
