<svg width="34" height="14" viewBox="0 0 34 14" fill="none" xmlns="http://www.w3.org/2000/svg">
<path d="M31.9299 11.9521C30.5578 13.3174 28.7525 14 26.9472 14C25.1419 14 23.3487 13.3174 21.9646 11.9521C19.2205 9.22156 14.7674 9.22156 12.0113 11.9521C9.26723 14.6826 4.81411 14.6826 2.05801 11.9521C0.685971 10.5868 0 8.79042 0 6.99402C0 5.19761 0.685971 3.41317 2.05801 2.0479C3.43004 0.682635 5.23537 1.07074e-06 7.04068 1.07074e-06C8.84599 1.07074e-06 10.6393 0.682635 12.0234 2.0479C13.3954 3.41317 15.2006 4.09581 17.006 4.09581C18.8113 4.09581 20.6046 3.41317 21.9886 2.0479C24.7327 -0.682634 29.1858 -0.682634 31.9419 2.0479C33.314 3.41317 34 5.20958 34 7.00598C34 8.80239 33.314 10.5868 31.9419 11.9521H31.9299Z" fill="#025B7B"/>
</svg>
