<svg width="170" height="170" viewBox="0 0 170 170" fill="none" xmlns="http://www.w3.org/2000/svg">
<g clip-path="url(#clip0_158_329)">
<path d="M88.2713 22.6777C88.2713 28.8262 88.2763 34.9747 88.2713 41.1232C88.2713 44.2566 87.2121 45.3404 84.128 45.4242C64.8253 45.9513 49.257 59.5982 46.1827 78.6891C42.7094 100.253 56.849 120.32 78.3884 123.857C99.0411 127.246 119.945 113.245 123.743 91.7448C124.083 89.8136 124.34 87.8577 124.433 85.9018C124.596 82.5763 125.547 81.586 128.961 81.586C139.41 81.586 149.86 81.586 160.309 81.586C162.216 81.586 164.122 81.5663 166.024 81.5909C168.443 81.6205 170.015 82.9852 169.995 85.0002C169.975 86.9856 168.532 88.2518 166.142 88.2715C162.329 88.3011 158.521 88.3257 154.708 88.2617C153.008 88.2321 152.254 88.9514 152.121 90.6215C149.948 118.309 130.296 143.096 101.766 150.742C100.376 151.116 98.8095 151.609 97.8389 150.293C97.1591 149.367 96.8043 147.963 96.8585 146.8C96.9374 145.249 98.3907 144.702 99.7357 144.362C106.273 142.697 112.397 140.071 117.984 136.292C133.434 125.847 142.568 111.412 145.17 92.9075C145.835 88.173 145.8 88.1681 140.977 88.173C138.331 88.173 135.691 88.2124 133.045 88.1582C131.513 88.1286 130.853 88.7888 130.68 90.3013C128.261 111.323 111.875 127.828 90.6312 130.641C88.9512 130.863 88.2122 131.503 88.227 133.351C88.3058 143.864 88.2664 154.378 88.2664 164.891C88.2664 165.384 88.2812 165.877 88.2664 166.364C88.1826 168.542 86.7835 170.054 84.9113 170C83.1082 169.951 81.7385 168.468 81.7139 166.399C81.6696 162.65 81.6597 158.895 81.7188 155.146C81.7435 153.57 81.2114 152.821 79.5462 152.653C66.2786 151.328 54.2969 146.707 43.808 138.42C31.58 128.759 23.6431 116.294 19.8151 101.199C19.219 98.8392 20.0713 97.1445 21.9976 96.637C24.0521 96.1 25.5645 97.2233 26.2297 99.8738C29.4616 112.801 36.1914 123.556 46.4093 132.084C56.0558 140.13 67.1901 144.697 79.694 145.943C81.0094 146.076 81.6893 145.529 81.6942 144.214C81.7041 140.342 81.6794 136.469 81.7041 132.592C81.7139 130.902 80.4428 130.927 79.3195 130.636C75.3585 129.621 71.2004 129.035 67.4857 127.439C51.2769 120.487 42 108.018 39.3543 90.6314C39.0637 88.7149 38.2409 88.1681 36.4771 88.173C25.7222 88.2075 14.9623 88.1927 4.20246 88.1828C3.53244 88.1828 2.82792 88.2124 2.19731 88.0203C0.704522 87.5769 -0.201987 85.9461 0.0443466 84.3794C0.310387 82.6945 1.54698 81.5909 3.38464 81.5712C7.31613 81.5318 11.2525 81.5023 15.189 81.5811C16.9921 81.6156 17.8247 81.0687 17.9972 79.1177C19.5441 61.3768 26.7223 46.3061 39.714 34.0879C47.5425 26.7274 56.7012 21.648 66.9782 18.559C69.4662 17.8101 71.3433 18.5738 71.9591 20.5494C72.5996 22.594 71.3975 24.3281 68.7962 25.0671C58.6029 27.969 49.7348 33.1715 42.3054 40.7143C32.0776 51.0997 26.1755 63.5642 24.7911 78.1176C24.7369 78.6694 24.5989 79.2113 24.5792 79.7631C24.5398 80.847 25.0226 81.5564 26.1804 81.5663C29.9296 81.586 33.6788 81.5959 37.428 81.5663C38.7631 81.5564 39.1031 80.6056 39.2706 79.4675C42.0591 60.7314 52.3263 47.9664 70.0278 41.2956C72.9198 40.2068 76.0581 39.7289 79.1225 39.1525C81.3937 38.7288 81.709 38.5465 81.709 36.2606C81.709 25.3775 81.7139 14.4945 81.709 3.61146C81.709 2.07433 82.1278 0.635745 83.6353 0.18249C84.6207 -0.113111 86.1676 -0.0786239 86.8377 0.517504C87.6604 1.25158 88.2024 2.70988 88.227 3.86765C88.3551 10.1344 88.2861 16.411 88.2861 22.6826L88.2713 22.6777Z" fill="#025B7B"/>
<path d="M123.66 60.3369C117.255 58.6224 113.126 61.8839 109.032 66.3228C102.243 73.6833 95.011 80.6348 87.8821 87.6701C87.0544 88.4879 85.6503 89.222 84.5812 89.1383C83.6205 89.0644 82.3002 87.9657 81.975 87.0296C81.6548 86.0985 82.0341 84.517 82.7042 83.7288C84.7783 81.3048 87.1333 79.1272 89.3848 76.856C96.09 70.0868 102.815 63.3422 109.461 56.5138C110.097 55.8585 110.525 54.7303 110.55 53.8041C110.663 49.38 110.624 44.9558 110.589 40.5267C110.574 38.8911 111.092 37.6003 112.274 36.4277C119.61 29.1609 126.897 21.8447 134.198 14.5434C135.336 13.4053 136.528 12.5235 138.267 13.2083C140.046 13.9079 140.465 15.3366 140.455 17.0659C140.43 20.5096 140.445 23.9484 140.45 27.3922C140.45 30.2004 140.77 30.5108 143.667 30.5108C146.987 30.5108 150.303 30.5305 153.624 30.5058C155.397 30.4911 156.939 30.8211 157.669 32.6933C158.378 34.5162 157.383 35.6394 156.171 36.8366C148.865 44.0444 141.588 51.2866 134.351 58.5633C133.134 59.7851 131.838 60.4059 130.119 60.3467C127.971 60.2728 125.818 60.327 123.665 60.327L123.66 60.3369ZM123.921 53.6514C125.517 53.6514 127.118 53.7007 128.714 53.6268C129.276 53.6021 129.976 53.4248 130.355 53.0553C134.73 48.7395 139.075 44.3942 143.361 39.9897C143.82 39.5217 144.169 38.4476 143.938 37.9451C143.701 37.4229 142.716 37.0189 142.021 36.9598C140.376 36.8218 138.706 36.945 137.045 36.9056C135.001 36.8514 133.745 35.5902 133.69 33.5456C133.651 32.0085 133.794 30.4615 133.631 28.9392C133.552 28.1854 133.148 27.1163 132.582 26.8601C132.065 26.6236 130.931 27.0769 130.419 27.5794C126.187 31.7769 122.019 36.0385 117.891 40.3395C117.437 40.8125 117.122 41.6204 117.107 42.2806C117.023 45.3499 117.107 48.4291 117.058 51.4984C117.038 52.9715 117.654 53.6711 119.127 53.6514C120.723 53.6317 122.325 53.6514 123.921 53.6514Z" fill="#025B7B"/>
<path d="M84.8326 112.358C70.8359 112.195 58.8739 101.317 57.7408 87.6159C56.5584 73.2695 66.1162 60.5931 80.0734 58.0509C81.4578 57.7997 82.8718 57.6667 84.2808 57.6272C86.5028 57.5632 87.9266 58.8737 87.9463 60.8345C87.966 62.8003 86.6111 64.1157 84.3695 64.1847C79.9355 64.3226 75.9005 65.6528 72.4519 68.4167C65.5792 73.9247 62.8596 81.1521 64.9091 89.6802C66.9783 98.2773 72.6686 103.618 81.4381 105.209C93.3804 107.372 103.904 99.4449 105.313 87.4386C105.426 86.4631 105.544 85.4876 105.653 84.5121C105.865 82.6203 107.293 81.3246 109.101 81.3985C110.934 81.4724 112.215 82.8321 112.279 84.7733C112.713 97.4496 102.741 109.628 90.1288 111.771C88.3798 112.067 86.6013 112.166 84.8326 112.353V112.358Z" fill="#025B7B"/>
</g>
<defs>
<clipPath id="clip0_158_329">
<rect width="170" height="170" fill="white"/>
</clipPath>
</defs>
</svg>
