<svg width="170" height="170" viewBox="0 0 170 170" fill="none" xmlns="http://www.w3.org/2000/svg">
<path d="M84.8456 169.995C58.2321 169.995 31.6186 169.995 5.01009 169.985C4.15302 169.985 3.28118 169.97 2.44874 169.793C0.774006 169.428 -0.107691 168.126 0.0105254 166.406C0.123816 164.779 1.31583 163.62 3.00534 163.497C3.18759 163.482 3.37969 163.462 3.55702 163.497C8.39896 164.394 11.8125 162.264 15.1471 158.872C21.4372 152.472 28.0327 146.363 34.7218 140.382C37.495 137.907 38.9678 135.185 39.5145 131.522C40.9331 122.06 42.6522 112.638 44.3269 103.216C44.4845 102.323 44.9919 101.317 45.6568 100.721C51.3854 95.5978 57.1731 90.544 62.9755 85.505C65.0886 83.6708 67.1722 84.1589 68.6943 86.8116C75.0779 97.9448 81.4468 109.093 87.8207 120.231C89.254 122.736 90.7022 125.231 92.1208 127.745C93.3867 129.989 93.037 131.768 91.1652 132.799C89.3624 133.79 87.7074 133.203 86.4464 131.029C79.6687 119.343 72.9106 107.648 66.1427 95.9528C64.5764 93.246 64.0887 93.1769 61.749 95.2478C58.8035 97.856 55.9269 100.553 52.8582 103.008C50.9372 104.547 50.1244 106.401 49.7648 108.767C48.2477 118.717 46.6321 128.647 44.9278 138.568C44.7505 139.603 43.9279 140.673 43.13 141.442C36.6527 147.66 30.0917 153.788 23.6095 160.001C22.979 160.602 22.2894 161.638 22.3781 162.387C22.5307 163.723 23.8804 163.526 24.9197 163.526C49.7501 163.526 74.5804 163.526 99.4108 163.526C102.085 163.526 102.568 162.737 101.406 160.262C99.2729 155.706 97.1204 151.155 94.9925 146.6C93.8891 144.238 94.0615 143.193 95.884 141.319C102.78 134.214 109.656 127.089 116.611 120.048C117.838 118.806 118.202 117.721 117.7 115.996C112.257 97.3433 106.908 78.6614 101.47 60.0041C101.238 59.2054 100.396 58.5792 99.8344 57.8741C99.13 58.451 98.1794 58.8849 97.7509 59.6245C92.175 69.17 86.6681 78.755 81.1464 88.3302C80.841 88.8627 80.5454 89.4149 80.1612 89.8833C79.0579 91.2343 77.2945 91.5252 75.8562 90.6476C74.4376 89.7847 73.8662 88.0442 74.5607 86.4812C74.9055 85.6973 75.3735 84.9675 75.802 84.228C83.2004 71.5515 90.6185 58.8898 97.9774 46.1887C98.4996 45.2913 98.8099 44.1376 98.8197 43.0972C98.8887 34.6068 98.869 26.1164 98.8493 17.621C98.8493 15.846 99.6571 14.6873 101.312 14.1647C102.785 13.7012 104.031 14.2436 104.849 15.4516C105.263 16.063 105.425 16.9258 105.464 17.69C105.553 19.47 105.455 21.2598 105.504 23.0397C105.553 24.8542 106.533 25.6184 108.134 24.938C112.986 22.8721 117.803 20.7371 122.606 18.5529C123.123 18.3162 123.852 17.409 123.734 17.1132C123.453 16.418 122.832 15.6537 122.158 15.353C115.212 12.2615 108.218 9.27851 101.258 6.22649C98.534 5.03329 97.9774 2.19329 100.293 0.615512C101.179 0.00905299 102.869 -0.198031 103.844 0.216137C114.444 4.7276 124.98 9.39684 135.531 14.0217C136.89 14.6183 137.683 15.634 137.678 17.1575C137.678 18.8783 136.624 19.8053 135.161 20.4364C125.99 24.3956 116.843 28.4091 107.642 32.2944C106.075 32.9551 105.455 33.7933 105.558 35.4549C105.676 37.3531 105.785 39.2958 105.538 41.1694C105.115 44.3989 106.4 46.7015 108.558 48.9942C114.07 54.8665 119.375 60.936 124.709 66.971C125.546 67.9177 126.271 69.032 126.793 70.1857C140.949 101.431 155.071 132.686 169.183 163.95C169.553 164.774 169.912 165.666 169.986 166.549C170.124 168.235 169.237 169.379 167.597 169.783C166.779 169.985 165.898 169.99 165.041 169.99C138.304 170 111.567 170 84.8357 170L84.8456 169.995ZM135.014 163.492C142.447 163.492 149.879 163.492 157.312 163.492C160.514 163.492 161.1 162.619 159.81 159.754C147.165 131.621 134.482 103.502 121.916 75.3332C119.793 70.5703 115.823 67.395 112.671 63.5147C112.356 63.1252 111.178 63.0068 110.72 63.2879C110.262 63.564 110.119 64.4909 110.006 65.1566C109.942 65.5362 110.203 65.975 110.321 66.3892C115.173 83.2961 119.995 100.208 124.916 117.095C125.551 119.269 125.147 120.778 123.576 122.371C116.616 129.407 109.77 136.556 102.839 143.617C101.829 144.647 101.618 145.535 102.273 146.866C104.652 151.713 106.962 156.589 109.228 161.49C109.912 162.974 110.878 163.541 112.523 163.526C120.015 163.457 127.512 163.497 135.009 163.497L135.014 163.492Z" fill="#025B7B"/>
</svg>
