<?xml version="1.0" encoding="utf-8"?>
<!-- Generator: Adobe Illustrator 27.5.0, SVG Export Plug-In . SVG Version: 6.00 Build 0)  -->
<svg version="1.1" id="Layer_1" xmlns="http://www.w3.org/2000/svg" xmlns:xlink="http://www.w3.org/1999/xlink" x="0px" y="0px"
	 viewBox="0 0 1000 1000" style="enable-background:new 0 0 1000 1000;" xml:space="preserve">
<style type="text/css">
	.st0{fill:none;stroke:#000000;stroke-width:42;stroke-miterlimit:10;}
	.st1{fill:none;stroke:#000000;stroke-width:24;stroke-miterlimit:10;}
</style>
<g>
	<path d="M892.99,803.09c-0.81-2.17-1.62-4.33-2.45-6.48L631.04,125L515.25,447.57c13.43,1.92,23.99,9.82,31.57,17.99
		c7.61,8.2,13.3,17.98,16.92,28.57l101.39,296.43c8.54,24.97,24.37,46.89,45.71,62.41c29.16,21.21,56.42,22.26,64.9,22
		c4.07-0.13,8.14-0.17,12.21-0.17h200.54C919.76,866.56,896.71,813.05,892.99,803.09z"/>
	<path d="M216.83,854.34c-13.06-17.65-19.85-39.15-19.85-61.11V354.29c0-27.98-4.35-55.83-13.26-82.35
		C138.75,138.12,11.51,125,11.51,125c36.49,19.47,37.84,65.48,37.84,65.48v451.5C67.54,854.83,239.56,875,239.56,875
		C230.39,870.07,222.86,862.5,216.83,854.34z"/>
	<circle cx="410.59" cy="807.25" r="67.75"/>
</g>
</svg>
