<?xml version="1.0" encoding="utf-8"?>
<!-- Generator: Adobe Illustrator 28.0.0, SVG Export Plug-In . SVG Version: 6.00 Build 0)  -->
<svg version="1.1" id="Layer_1" xmlns="http://www.w3.org/2000/svg" xmlns:xlink="http://www.w3.org/1999/xlink" x="0px" y="0px"
	 viewBox="0 0 1000 508.4" style="enable-background:new 0 0 1000 508.4;" xml:space="preserve">
<style type="text/css">
	.st0{fill:#3387A4;}
	.st1{fill:#71BECF;}
</style>
<g>
	<g>
		<path class="st0" d="M72.2,492.8c-5.1,0-6.9-1.4-12.3-9.3l-6.3-13c12.5-3.4,19.4-12.1,19.4-24.7c0-15.6-10.7-25.6-27.4-25.6H0.3
			v86.2h13.5v-32.2c5.3-2.7,10.8-3.1,15.5-3.1H39l10.2,21.5c6.7,13.8,17,13.8,27,13.8h0.5v-13.8l-3.3,0.1h-1.2V492.8z M13.9,433.7
			h31.7c6.4,0,13.9,2,13.9,11.4c0,10.3-7.6,12.5-13.9,12.5H29.4c-5.1,0-10.4,0.2-15.5,2.9V433.7z"/>
		<path class="st0" d="M132.7,418.7h-14.9l4.9,11l-37.1,76.7h14.7l2.3-4.3c1.8-3.3,10-8.2,25.3-8.2h25.5l5.6,12.4h15.1L132.8,419
			L132.7,418.7z M147.3,480.3h-14.8c-11.4,0-17.4,2-20.4,3.7l17.5-37.9L147.3,480.3z"/>
		<path class="st0" d="M252,481.1l-0.4,0.6c-6.3,8.3-16,13.1-26.6,13.1c-18.3,0-33.1-14-33.1-31.3c0-18.7,13.9-32.2,33-32.2
			c9.4,0,18.3,3.7,24.5,10.1l0.4,0.4l8.7-10.2l-0.4-0.4c-8.8-8.8-20.5-13.6-33.1-13.6c-25.6,0-46.4,19.9-46.4,44.4
			c0,26,20.3,46.3,46.3,46.3c13.5,0,26.4-5.7,35.2-15.6l0.3-0.3L252,481.1z"/>
		<path class="st0" d="M353.7,492L353.7,492c7-8.3,10.7-18.1,10.7-28.6c0-25.6-20.3-45.7-46.3-45.7c-25.6,0-46.4,19.9-46.4,44.4
			c0,26,20.3,46.3,46.3,46.3c9.1,0,17.7-2.5,25.1-7.1l0,0c4.8,3.3,9.6,6.4,16.3,7.1h0.4l6.9-11.9l-0.9-0.1
			C362.1,496.2,358.1,494.7,353.7,492z M314.1,485l0.9,0.1c6,0.3,9.3,2.2,15.9,7.2l0,0c-4.1,1.7-8.4,2.5-12.8,2.5
			c-18.3,0-33.1-14-33.1-31.3c0-18.7,13.9-32.2,33-32.2c18.5,0,33,13.8,33,31.4c0,7.9-2.9,15.5-8.3,21.4l-1.8-1.3
			c-9.3-6.9-12.4-9.2-19.6-9.7H321L314.1,485z"/>
		<path class="st0" d="M447.5,472.8c0,14.2-9,22-25.4,22c-16.3,0-25.4-7.8-25.4-22v-52.6h-13.4v52.6c0,22.3,14.5,35.6,38.8,35.6
			s38.8-13.3,38.8-35.6v-52.6h-13.4V472.8z"/>
		<path class="st0" d="M497.3,472.1c5.3-2.7,10.8-3.1,15.5-3.1H532v-13.8h-19.1c-5,0-10.4,0.2-15.5,2.9v-24.3h47.5v-13.6h-61v86.2
			h66v-13.5h-52.5v-20.8H497.3z"/>
		<rect x="785.5" y="420.2" class="st0" width="13.3" height="86.2"/>
		<polygon class="st0" points="886.2,484.3 832.5,420.4 832.3,420.2 814.8,420.2 825.4,432.9 825.4,506.4 838.7,506.4 838.7,448.8 
			886.5,506.2 886.7,506.4 899.8,506.4 899.8,420.2 886.2,420.2 		"/>
		<path class="st0" d="M996.4,492.8h-0.8c-3.1,0-7.3-1.1-12.8-9.3l-15.1-22.6l28.3-40.6h-16.3l-42.4,62.3v-62.3h-13.5v86.2h13.3
			l22.6-33.7l12.4,20c8,12.8,14.6,13.7,22.5,13.7c0.7,0,1.4,0,2.2,0s1.5,0,2.3,0h0.6v-13.8L996.4,492.8z"/>
		<g>
			<polygon class="st0" points="724.6,492.9 724.6,470.1 711,470.1 711,506.4 771.8,506.4 771.8,492.9 			"/>
			<rect x="711" y="420.2" class="st0" width="13.5" height="36.3"/>
		</g>
		<g>
			<rect x="589.9" y="470.1" class="st0" width="13.2" height="36.3"/>
			<polygon class="st0" points="559.6,420.2 559.6,433.8 589.9,433.8 589.9,456.5 603.1,456.5 603.1,433.8 633.1,433.8 633.1,420.2 
							"/>
		</g>
	</g>
	<path class="st1" d="M681.8,470.6c-2,2-4.7,3-7.3,3c-2.7,0-5.3-1-7.3-3c-4.1-4.1-10.6-4.1-14.7,0c-4.1,4.1-10.6,4.1-14.7,0
		c-2-2-3-4.7-3-7.3c0-2.7,1-5.3,3-7.3s4.7-3,7.3-3c2.7,0,5.3,1,7.3,3s4.7,3,7.3,3c2.7,0,5.3-1,7.3-3c4.1-4.1,10.6-4.1,14.7,0
		c2,2,3,4.7,3,7.3C684.8,466,683.8,468.6,681.8,470.6z"/>
	<g>
		<path class="st0" d="M472.2,58.9c-54.3,0.3-98.4,44.5-98.8,98.8c-0.3,55.4,45.8,100,101.3,100h73.4c13.3,0,24.1-10.8,24.1-24.1
			v-73.4C572.2,104.7,527.6,58.6,472.2,58.9z M518.6,228.3h-44.3c-35.9,0-68.8-29.2-71.2-65.1c-2.9-42.3,32.2-77.4,74.6-74.6
			c35.9,2.4,65.1,35.2,65.1,71.2v44.3C542.7,217.5,531.9,228.3,518.6,228.3z"/>
		<path class="st1" d="M473.2,117.3c-23-0.2-41.6,18.5-41.4,41.4c0.2,22.4,19.7,40.7,42.1,40.7h24.6c10,0,15.4-5.4,15.4-12.1v-27.9
			C513.9,137,495.6,117.5,473.2,117.3z"/>
		<g>
			<path class="st1" d="M622.6,322.8L622.6,322.8c0,8.1,6.6,14.7,14.7,14.7l0,0c8.1,0,14.7-6.6,14.7-14.7l0,0
				c0-8.1-6.6-14.7-14.7-14.7l0,0C629.2,308.1,622.6,314.7,622.6,322.8z"/>
		</g>
		<path class="st1" d="M631.1,272.5c0,4.1-1.7,7.8-4.3,10.4c-2.7,2.7-6.3,4.3-10.4,4.3c-8.1,0-14.7,6.6-14.7,14.7
			s-6.6,14.7-14.7,14.7c-4.1,0-7.8-1.7-10.4-4.3c-2.7-2.7-4.3-6.3-4.3-10.4s1.7-7.8,4.3-10.4c2.7-2.7,6.3-4.3,10.4-4.3
			c4.1,0,7.8-1.7,10.4-4.3c2.7-2.7,4.3-6.3,4.3-10.4c0-8.1,6.6-14.7,14.7-14.7c4.1,0,7.8,1.7,10.4,4.3
			C629.5,264.7,631.1,268.4,631.1,272.5z"/>
		<g>
			<path class="st0" d="M473.1,0c-87.5-0.1-158.7,71.1-158.6,158.6c0.1,87.6,72.4,158.1,160,158.1H528c8.1,0,14.7-6.6,14.7-14.7l0,0
				c0-8.1-6.6-14.7-14.7-14.7h-53.7c-71.3,0-130.8-58.3-130.4-129.6C344.3,87.1,401.6,29.9,472,29.5
				c71.3-0.4,129.6,59.1,129.6,130.4v53.7c0,8.1,6.6,14.7,14.7,14.7l0,0c8.1,0,14.7-6.6,14.7-14.7V160C631.1,72.4,560.7,0.1,473.1,0
				z"/>
		</g>
	</g>
</g>
</svg>
