<?xml version="1.0" encoding="utf-8"?>
<!-- Generator: Adobe Illustrator 28.0.0, SVG Export Plug-In . SVG Version: 6.00 Build 0)  -->
<svg version="1.1" id="Layer_1" xmlns="http://www.w3.org/2000/svg" xmlns:xlink="http://www.w3.org/1999/xlink" x="0px" y="0px"
	 viewBox="0 0 950.7 159.5" style="enable-background:new 0 0 950.7 159.5;" xml:space="preserve">
<style type="text/css">
	.st0{fill:#3387A4;}
	.st1{fill:#71BECF;}
	.st2{fill:#FFFFFF;}
</style>
<g>
	<g>
		<g>
			<path class="st2" d="M271.2,101.5c-3.7,0-5.1-1-9-6.8l-4.6-9.5c9.2-2.5,14.2-8.9,14.2-18.1c0-11.4-7.9-18.8-20-18.8h-33.2v63.2
				h9.9V88c3.9-2,7.9-2.3,11.4-2.3h7l7.5,15.8c4.9,10.1,12.4,10.1,19.8,10.1h0.4v-10.1l-2.4,0.1H271.2z M228.4,58.3h23.3
				c4.7,0,10.2,1.5,10.2,8.4c0,7.5-5.6,9.1-10.2,9.1h-11.9c-3.7,0-7.6,0.2-11.4,2.2V58.3z"/>
			<path class="st2" d="M315.5,47.3h-10.9l3.6,8.1L281,111.5h10.7l1.7-3.1c1.3-2.4,7.3-6,18.5-6h18.7l4.1,9.1h11.1l-30.3-64
				L315.5,47.3z M326.2,92.4h-10.9c-8.4,0-12.7,1.5-14.9,2.7c0,0,12.8-27.8,12.8-27.8L326.2,92.4z"/>
			<path class="st2" d="M402.9,93l-0.3,0.4c-4.6,6.1-11.7,9.6-19.5,9.6c-13.4,0-24.3-10.3-24.3-22.9c0-13.7,10.2-23.6,24.2-23.6
				c6.9,0,13.4,2.7,17.9,7.4l0.3,0.3l6.4-7.5l-0.3-0.3c-6.4-6.4-15.1-10-24.3-10c-18.8,0-34,14.6-34,32.5c0,19,14.9,33.9,33.9,33.9
				c9.9,0,19.3-4.2,25.8-11.4l0.2-0.2L402.9,93z"/>
			<path class="st2" d="M477.4,101C477.4,101,477.4,101,477.4,101c5.1-6.1,7.8-13.3,7.8-21c0-18.8-14.9-33.5-33.9-33.5
				c-18.7,0-34,14.6-34,32.5c0,19,14.9,33.9,33.9,33.9c6.6,0,13-1.8,18.4-5.2c0,0,0,0,0,0c3.5,2.5,7.1,4.7,11.9,5.2l0.3,0l5-8.7
				l-0.6,0C483.6,104,480.7,103,477.4,101z M448.4,95.9l0.6,0c4.4,0.2,6.8,1.6,11.7,5.3c0,0,0,0,0,0c-3,1.2-6.1,1.9-9.4,1.9
				c-13.4,0-24.3-10.3-24.3-22.9c0-13.7,10.2-23.6,24.2-23.6c13.6,0,24.2,10.1,24.2,23c0,5.8-2.2,11.4-6.1,15.7l-1.3-1
				c-6.8-5.1-9.1-6.8-14.3-7.1l-0.2,0L448.4,95.9z"/>
			<path class="st2" d="M546.2,86.9c0,10.4-6.6,16.2-18.6,16.2c-12,0-18.6-5.7-18.6-16.2V48.4h-9.8v38.5c0,16.3,10.6,26.1,28.4,26.1
				c17.8,0,28.4-9.7,28.4-26.1V48.4h-9.8V86.9z"/>
			<path class="st2" d="M582.7,86.4c3.9-2,7.9-2.3,11.4-2.3h14V74h-14c-3.7,0-7.6,0.2-11.4,2.2V58.4h34.8v-10h-44.7v63.2h48.4v-9.9
				h-38.5V86.4z"/>
			<rect x="793.8" y="48.4" class="st2" width="9.7" height="63.2"/>
			<polygon class="st2" points="867.6,95.3 828.2,48.5 828.1,48.4 815.3,48.4 823,57.7 823,111.5 832.8,111.5 832.8,69.3 
				867.8,111.4 868,111.5 877.6,111.5 877.6,48.4 867.6,48.4 			"/>
			<path class="st2" d="M948.3,101.5h-0.6c-2.3,0-5.4-0.8-9.4-6.8l-11.1-16.6l20.8-29.7h-11.9L905.1,94V48.4h-9.9v63.2h9.7
				l16.6-24.7l9.1,14.6c5.9,9.3,10.7,10.1,16.5,10.1c0.5,0,1.1,0,1.6,0c0.6,0,1.1,0,1.7,0h0.4v-10.1L948.3,101.5z"/>
			<g>
				<polygon class="st2" points="749.2,101.6 749.2,84.9 739.2,84.9 739.2,111.5 783.8,111.5 783.8,101.6 				"/>
				<rect x="739.2" y="48.4" class="st2" width="9.9" height="26.6"/>
			</g>
			<g>
				<rect x="650.5" y="84.9" class="st2" width="9.7" height="26.6"/>
				<polygon class="st2" points="628.3,48.4 628.3,58.4 650.5,58.4 650.5,75 660.2,75 660.2,58.4 682.1,58.4 682.1,48.4 				"/>
			</g>
		</g>
		<path class="st1" d="M717.8,85.3c-1.5,1.5-3.4,2.2-5.4,2.2c-1.9,0-3.9-0.7-5.4-2.2c-3-3-7.8-3-10.8,0c-3,3-7.8,3-10.8,0
			c-1.5-1.5-2.2-3.4-2.2-5.4c0-1.9,0.7-3.9,2.2-5.4s3.4-2.2,5.4-2.2c1.9,0,3.9,0.7,5.4,2.2c1.5,1.5,3.4,2.2,5.4,2.2
			c1.9,0,3.9-0.7,5.4-2.2c3-3,7.8-3,10.8,0c1.5,1.5,2.2,3.4,2.2,5.4C720,81.9,719.3,83.8,717.8,85.3z"/>
	</g>
	<g>
		<path class="st2" d="M74.5,27.9C48.8,28,28,48.9,27.8,74.5c-0.2,26.2,21.7,47.3,47.8,47.3h34.7c6.3,0,11.4-5.1,11.4-11.4V75.7
			C121.8,49.5,100.7,27.7,74.5,27.9z M96.5,107.9h-21c-17,0-32.5-13.8-33.6-30.8c-1.4-20,15.2-36.6,35.2-35.3
			c17,1.1,30.8,16.7,30.8,33.6l0,21C107.9,102.8,102.8,107.9,96.5,107.9z"/>
		<path class="st1" d="M75,55.4C64.1,55.3,55.3,64.1,55.4,75c0.1,10.6,9.3,19.2,19.9,19.2h11.6c4.7,0,7.3-2.6,7.3-5.7l0-13.2
			C94.2,64.7,85.6,55.5,75,55.4z"/>
		<g>
			<path class="st1" d="M145.6,152.5L145.6,152.5c0,3.8,3.1,7,7,7h0c3.8,0,7-3.1,7-7v0c0-3.8-3.1-7-7-7h0
				C148.7,145.6,145.6,148.7,145.6,152.5z"/>
		</g>
		<path class="st1" d="M149.6,128.8c0,1.9-0.8,3.7-2,4.9c-1.3,1.3-3,2-4.9,2c-3.8,0-7,3.1-7,7c0,3.8-3.1,7-7,7c-1.9,0-3.7-0.8-4.9-2
			c-1.3-1.3-2-3-2-4.9s0.8-3.7,2-4.9c1.3-1.3,3-2,4.9-2s3.7-0.8,4.9-2c1.3-1.3,2-3,2-4.9c0-3.8,3.1-7,7-7c1.9,0,3.7,0.8,4.9,2
			C148.9,125.1,149.6,126.8,149.6,128.8z"/>
		<g>
			<path class="st2" d="M74.9,0C33.6-0.1-0.1,33.6,0,74.9c0.1,41.4,34.2,74.7,75.6,74.7h25.3c3.8,0,7-3.1,7-7v0c0-3.8-3.1-7-7-7
				H75.6c-33.7,0-61.8-27.6-61.6-61.3c0.2-33.3,27.2-60.3,60.5-60.5c33.7-0.2,61.3,27.9,61.3,61.6v25.4c0,3.8,3.1,7,7,7h0
				c3.8,0,7-3.1,7-7V75.6C149.6,34.2,116.3,0.1,74.9,0z"/>
		</g>
	</g>
</g>
</svg>
