<?xml version="1.0" encoding="utf-8"?>
<!-- Generator: Adobe Illustrator 27.9.0, SVG Export Plug-In . SVG Version: 6.00 Build 0)  -->
<svg version="1.1" id="Layer_1" xmlns="http://www.w3.org/2000/svg" xmlns:xlink="http://www.w3.org/1999/xlink" x="0px" y="0px"
	 viewBox="0 0 500 500" style="enable-background:new 0 0 500 500;" xml:space="preserve">
<style type="text/css">
	.st0{fill:#025B7B;}
	.st1{fill:#FFFFFF;}
	.st2{fill:none;}
	.st3{fill:#010202;}
	.st4{fill:#7EC1D3;}
	.st5{fill:url(#);}
</style>
<g>
	<g>
		<path class="st0" d="M234.81,90.12c-79.79,0-144.69,64.9-144.69,144.68c0,79.79,64.9,144.69,144.69,144.69h144.67V234.8
			C379.48,155.03,314.58,90.12,234.81,90.12z M336.59,336.59H234.81c-56.14,0-101.79-45.65-101.79-101.79
			c0-56.12,45.65-101.79,101.79-101.79c56.12,0,101.79,45.67,101.79,101.79V336.59z"/>
		<path class="st4" d="M234.8,175.05c-33,0-59.75,26.75-59.75,59.75c0,33,26.75,59.75,59.75,59.75h59.75V234.8
			C294.55,201.8,267.8,175.05,234.8,175.05z"/>
		<g>
			<path class="st4" d="M452.78,474.22L452.78,474.22c0,11.84,9.6,21.45,21.45,21.45h0c11.84,0,21.45-9.6,21.45-21.45v0
				c0-11.84-9.6-21.45-21.45-21.45h0C462.38,452.78,452.78,462.38,452.78,474.22z"/>
		</g>
		<path class="st4" d="M465.27,400.92c0,5.92-2.4,11.28-6.29,15.17c-3.88,3.88-9.24,6.29-15.17,6.29c-11.83,0-21.44,9.6-21.44,21.45
			c0,11.83-9.6,21.44-21.45,21.44c-5.92,0-11.28-2.4-15.17-6.29c-3.88-3.88-6.29-9.22-6.29-15.15c0-5.92,2.4-11.28,6.29-15.17
			c3.88-3.88,9.24-6.29,15.17-6.29c5.92,0,11.28-2.4,15.17-6.29c3.88-3.88,6.29-9.24,6.29-15.17c0-11.83,9.6-21.44,21.44-21.44
			c5.92,0,11.28,2.4,15.17,6.29C462.87,389.66,465.27,395,465.27,400.92z"/>
		<g>
			<path class="st0" d="M235.16,4.33C107.8,4.14,4.13,107.8,4.33,235.16c0.2,127.54,105.38,230.11,232.92,230.11h77.89
				c11.84,0,21.45-9.6,21.45-21.45v0c0-11.84-9.6-21.45-21.45-21.45h-78.1c-103.77,0-190.42-84.9-189.82-188.68
				C47.82,131.14,131.14,47.82,233.7,47.23c103.77-0.6,188.68,86.04,188.68,189.82v78.1c0,11.84,9.6,21.45,21.45,21.45h0
				c11.84,0,21.45-9.6,21.45-21.45v-77.9C465.27,109.71,362.71,4.53,235.16,4.33z"/>
		</g>
	</g>
</g>
</svg>
