<?xml version="1.0" encoding="utf-8"?>
<!-- Generator: Adobe Illustrator 28.0.0, SVG Export Plug-In . SVG Version: 6.00 Build 0)  -->
<svg version="1.1" id="Layer_1" xmlns="http://www.w3.org/2000/svg" xmlns:xlink="http://www.w3.org/1999/xlink" x="0px" y="0px"
	 viewBox="0 0 1000 1000" style="enable-background:new 0 0 1000 1000;" xml:space="preserve">
<style type="text/css">
	.st0{fill:#3387A4;}
	.st1{fill:#71BECF;}
	.st2{fill:#FFFFFF;}
</style>
<g>
	<path class="st0" d="M467.2,174.6c-160.9,1-291.6,131.8-292.6,292.6c-1,164.2,135.7,296.3,300,296.3H692c39.5,0,71.5-32,71.5-71.5
		V474.5C763.5,310.3,631.4,173.6,467.2,174.6z M604.7,676.2H473.3c-106.5,0-203.8-86.6-210.9-192.8c-8.5-125.4,95.4-229.4,220.9-221
		c106.3,7.1,193,104.4,193,210.9v131.4C676.2,644.2,644.2,676.2,604.7,676.2z"/>
	<path class="st1" d="M470.1,347.5c-68-0.6-123.2,54.7-122.7,122.7c0.6,66.3,58.4,120.6,124.7,120.6h72.8c29.8,0,45.7-16,45.7-35.7
		v-82.8C590.7,405.8,536.5,348,470.1,347.5z"/>
	<g>
		<path class="st1" d="M912.7,956.4L912.7,956.4c0,24.1,19.5,43.6,43.6,43.6h0c24.1,0,43.6-19.5,43.6-43.6v0
			c0-24.1-19.5-43.6-43.6-43.6h0C932.2,912.7,912.7,932.2,912.7,956.4z"/>
	</g>
	<path class="st1" d="M938.1,807.2c0,12.1-4.9,23-12.8,30.9c-7.9,7.9-18.8,12.8-30.9,12.8c-24.1,0-43.6,19.5-43.6,43.7
		c0,24.1-19.5,43.6-43.7,43.6c-12.1,0-23-4.9-30.9-12.8c-7.9-7.9-12.8-18.8-12.8-30.8c0-12.1,4.9-23,12.8-30.9
		c7.9-7.9,18.8-12.8,30.9-12.8s23-4.9,30.9-12.8c7.9-7.9,12.8-18.8,12.8-30.9c0-24.1,19.5-43.6,43.6-43.6c12.1,0,23,4.9,30.9,12.8
		C933.2,784.2,938.1,795.1,938.1,807.2z"/>
	<g>
		<path class="st0" d="M469.8,0C210.6-0.4-0.4,210.6,0,469.8c0.4,259.6,214.5,468.3,474,468.3h158.5c24.1,0,43.6-19.5,43.6-43.6v0
			c0-24.1-19.5-43.6-43.6-43.6h-159c-211.2,0-387.6-172.8-386.3-384C88.5,258.1,258.1,88.5,466.8,87.3
			c211.2-1.2,384,175.1,384,386.3v159c0,24.1,19.5,43.6,43.6,43.6h0c24.1,0,43.6-19.5,43.6-43.6V474C938.1,214.5,729.4,0.4,469.8,0z
			"/>
	</g>
</g>
</svg>
