<svg width="92" height="92" viewBox="0 0 92 92" fill="none" xmlns="http://www.w3.org/2000/svg">
<path d="M45.9786 91.9871C31.542 91.9871 17.1044 91.9853 2.6678 91.9935C2.056 91.9935 1.5638 91.8399 1.24364 91.2934C0.755118 90.4599 1.33196 89.3495 2.29612 89.2933C2.76992 89.2657 3.24556 89.2759 3.72028 89.2841C3.97788 89.2887 4.09012 89.1848 4.07356 88.9281C4.06528 88.8039 4.07264 88.6779 4.07264 88.5537C4.07264 81.1173 4.07264 73.6809 4.07356 66.2446C4.07356 65.6411 4.10576 65.0458 4.46272 64.5196C4.90892 63.8618 5.50968 63.411 6.31008 63.4045C9.48408 63.3815 12.6581 63.3687 15.8321 63.4119C16.9968 63.4275 17.9214 64.4349 18.006 65.5978C18.0272 65.8839 18.0281 66.1719 18.0281 66.4599C18.029 73.8833 18.029 81.3077 18.029 88.7312C18.029 89.2814 18.03 89.2814 18.5921 89.2823C19.4293 89.2832 20.2674 89.2657 21.1046 89.2897C21.4744 89.3007 21.5637 89.1673 21.5628 88.8149C21.5536 82.6905 21.5563 76.567 21.5563 70.4425C21.5563 66.056 21.5628 61.6685 21.5517 57.2819C21.5499 56.3978 21.8056 55.6324 22.5435 55.1383C22.9299 54.8789 23.4285 54.6507 23.8793 54.6443C26.9788 54.602 30.0783 54.602 33.1778 54.6314C34.5035 54.6443 35.4594 55.7244 35.5228 57.1614C35.532 57.3611 35.5265 57.5616 35.5265 57.7613C35.5265 68.034 35.5265 78.3067 35.5265 88.5794C35.5265 88.7165 35.5302 88.8545 35.5274 88.9916C35.5228 89.1958 35.6194 89.2832 35.8246 89.2823C36.7998 89.2786 37.775 89.2878 38.7493 89.2685C38.8376 89.2667 38.96 89.1121 38.9995 89.0035C39.0437 88.8821 39.0106 88.7321 39.0106 88.5951C39.0106 72.3598 39.0124 56.1246 39.0069 39.8893C39.0069 39.0264 39.1936 38.2609 39.8625 37.6639C40.3096 37.2646 40.8322 37.0337 41.4228 37.0318C44.4726 37.0199 47.5224 37.0116 50.5722 37.0327C51.8657 37.0419 52.9081 38.0898 52.9918 39.3852C53.0074 39.6216 53.0019 39.8599 53.0019 40.0973C53.0019 56.2699 53.0019 72.4426 53.0019 88.6153C53.0019 88.7524 52.9725 88.9005 53.0139 89.0247C53.047 89.125 53.1638 89.2676 53.2466 89.2694C54.2338 89.2869 55.2219 89.2878 56.209 89.2694C56.3029 89.2676 56.4317 89.1158 56.4749 89.0063C56.5218 88.8867 56.4878 88.7358 56.4878 88.5978C56.4878 75.3369 56.485 62.077 56.4979 48.8161C56.4988 48.3156 56.5697 47.7839 56.7482 47.3202C57.0932 46.4278 57.8347 45.9696 58.7694 45.8721C59.3012 45.8169 59.844 45.8243 60.3794 45.8546C61.154 45.8979 61.6784 46.4821 61.6683 47.2319C61.6573 47.9881 61.1228 48.5153 60.3288 48.5456C60.1043 48.5548 59.8771 48.5649 59.6544 48.5465C59.3021 48.5171 59.1751 48.6809 59.2027 49.0102C59.2101 49.0967 59.2036 49.185 59.2036 49.2724C59.2036 62.3953 59.2036 75.5182 59.2036 88.642C59.2036 88.7174 59.2101 88.7929 59.2027 88.8665C59.1714 89.1682 59.2901 89.3108 59.6075 89.2841C59.8062 89.2676 60.0068 89.2814 60.2074 89.2814C62.5819 89.2814 64.9573 89.2749 67.3318 89.2887C67.6649 89.2906 67.756 89.1894 67.756 88.8628C67.7486 75.5771 67.7486 62.2913 67.756 49.0065C67.756 48.6413 67.6364 48.5097 67.2803 48.5456C67.0577 48.5677 66.8304 48.5548 66.606 48.5447C65.8681 48.5107 65.3235 47.9927 65.2701 47.2825C65.2204 46.6136 65.7421 45.919 66.4578 45.8804C67.2104 45.8399 67.985 45.8666 68.7238 46.0046C69.6493 46.1775 70.3853 47.1518 70.4414 48.0875C70.4571 48.3487 70.4571 48.6119 70.4571 48.8741C70.458 62.1469 70.458 75.4197 70.458 88.6935C70.458 89.2814 70.458 89.2814 71.0514 89.2814C71.8886 89.2814 72.7267 89.2703 73.5639 89.2869C73.8924 89.2933 73.9954 89.1793 73.9926 88.8527C73.9788 87.3153 73.9862 85.778 73.9862 84.2407C73.9862 63.6189 73.9871 42.9971 73.9834 22.3744C73.9834 21.7009 74.0304 21.0523 74.4609 20.4911C74.9853 19.8085 75.691 19.4718 76.5346 19.4681C79.4841 19.4552 82.4346 19.4488 85.3841 19.469C86.8184 19.4791 87.8883 20.4957 87.9306 21.9273C87.9362 22.1021 87.9398 22.2769 87.9398 22.4517C87.9398 32.5873 87.9408 42.7239 87.938 52.8595C87.938 53.1576 87.927 53.4612 87.8727 53.7537C87.7715 54.3002 87.2002 54.7418 86.6215 54.7584C86.0502 54.7749 85.4549 54.3573 85.327 53.8117C85.2599 53.5237 85.2304 53.2201 85.2304 52.923C85.2258 42.9373 85.2268 32.9507 85.2268 22.965C85.2268 22.8279 85.2231 22.6899 85.2258 22.5529C85.2323 22.2916 85.1246 22.1692 84.8459 22.1701C82.246 22.1757 79.646 22.1757 77.0461 22.1701C76.7793 22.1692 76.6892 22.2925 76.6965 22.5345C76.7002 22.6596 76.6965 22.7847 76.6965 22.9098C76.6965 44.8187 76.6965 66.7285 76.6965 88.6374C76.6965 88.7248 76.7048 88.8131 76.6956 88.8996C76.6625 89.1931 76.7867 89.2878 77.0811 89.2869C79.6562 89.2777 82.2312 89.2768 84.8054 89.2878C85.1412 89.2897 85.2332 89.171 85.2314 88.8508C85.2194 87.2132 85.2258 85.5765 85.2258 83.9389C85.2258 75.9773 85.2222 68.0165 85.2369 60.0548C85.2378 59.673 85.3289 59.2498 85.511 58.9186C85.8128 58.3703 86.3685 58.2783 86.9518 58.3915C87.4338 58.4853 87.8267 58.9315 87.903 59.4743C87.9362 59.708 87.9389 59.9472 87.9389 60.1845C87.9408 69.6835 87.9398 79.1816 87.9408 88.6806C87.9408 89.2805 87.9417 89.2805 88.5342 89.2805C88.8966 89.2814 89.2591 89.274 89.6216 89.2851C90.3788 89.309 90.939 89.8849 90.939 90.6301C90.939 91.3909 90.3668 91.9678 89.5931 91.9853C89.4302 91.9889 89.2683 91.9871 89.1055 91.9871C74.7277 91.9871 60.3527 91.9871 45.9786 91.9871ZM50.2944 64.5481C50.2944 56.4631 50.2944 48.3773 50.2944 40.2923C50.2944 39.7311 50.2934 39.7302 49.7506 39.7302C47.251 39.7302 44.7514 39.7302 42.2517 39.7302C41.719 39.7302 41.7181 39.7311 41.7181 40.2647C41.7181 56.4355 41.7181 72.6064 41.7181 88.7772C41.7181 89.2805 41.719 89.2823 42.2434 89.2823C44.7431 89.2832 47.2427 89.2823 49.7424 89.2823C50.2944 89.2823 50.2944 89.2814 50.2953 88.7294C50.2944 80.6683 50.2944 72.6082 50.2944 64.5481ZM24.263 73.2697C24.263 78.4548 24.2666 83.6399 24.2556 88.8251C24.2547 89.1839 24.354 89.2915 24.7174 89.2887C27.2539 89.274 29.7903 89.2814 32.3277 89.2805C32.7978 89.2805 32.8098 89.2694 32.8098 88.7947C32.8107 78.4622 32.8107 68.1287 32.8098 57.7962C32.8098 57.3344 32.7932 57.3197 32.3176 57.3187C29.8188 57.3178 27.3192 57.3178 24.8205 57.3187C24.2648 57.3187 24.2639 57.3187 24.2639 57.8643C24.262 62.9997 24.263 68.1352 24.263 73.2697ZM15.3178 77.7013C15.3178 73.9891 15.3132 70.2779 15.3252 66.5666C15.3261 66.1958 15.2304 66.0689 14.8431 66.0707C12.3186 66.0863 9.7932 66.0781 7.26872 66.079C6.80412 66.079 6.78756 66.0965 6.78756 66.5693C6.78664 73.9799 6.7894 81.3915 6.7802 88.8021C6.77928 89.1829 6.8952 89.2915 7.27148 89.2887C9.784 89.274 12.2956 89.2814 14.8081 89.2805C15.316 89.2805 15.3169 89.2795 15.3169 88.7607C15.3178 85.0751 15.3178 81.3878 15.3178 77.7013Z" fill="#0A567A"/>
<path d="M5.54152 49.2319C5.50564 46.6421 7.37784 44.5518 9.6162 43.9916C11.6715 43.4764 13.4701 43.9244 14.9798 45.4304C15.1675 45.6181 15.311 45.6522 15.5622 45.5252C17.9744 44.3025 20.394 43.0946 22.8154 41.8903C23.0436 41.7771 23.1154 41.6492 23.074 41.3916C22.6609 38.8432 24.1246 36.3326 26.5442 35.4034C28.0907 34.809 29.6014 34.8946 31.0688 35.6481C31.296 35.7649 31.4257 35.7318 31.5867 35.569C34.723 32.4216 37.8611 29.2762 41.0048 26.1353C41.198 25.9421 41.22 25.7719 41.0995 25.5382C39.4472 22.3522 41.3019 18.5168 44.7087 17.6685C47.4889 16.9758 50.4072 18.6253 51.2536 21.3697C51.5075 22.1922 51.6446 23.0257 51.4366 23.8776C51.3594 24.195 51.5498 24.3017 51.7678 24.4112C53.3401 25.1987 54.9124 25.9844 56.4847 26.7719C57.2878 27.174 58.0928 27.5714 58.8896 27.9845C59.1692 28.1289 59.3624 28.1151 59.6108 27.8787C61.1196 26.4426 62.9017 25.9495 64.9257 26.4711C65.2716 26.5603 65.4105 26.4656 65.5807 26.2089C66.9902 24.0763 68.4097 21.9502 69.8256 19.8213C72.0916 16.4155 74.3548 13.0087 76.6281 9.60749C76.801 9.34897 76.802 9.17693 76.6088 8.91841C74.6749 6.33781 75.1671 2.93841 77.7744 1.04597C80.5372 -0.959628 84.4343 0.0542114 85.8934 3.09941C87.2697 5.97073 86.1482 9.13185 83.2769 10.5349C82.0901 11.1145 80.8288 11.2009 79.5528 10.8495C79.2354 10.7621 79.055 10.8329 78.872 11.1089C75.1874 16.6565 71.4945 22.1986 67.8007 27.7389C67.6461 27.9707 67.6121 28.1427 67.8145 28.393C70.2111 31.3627 68.775 35.7355 65.3884 36.9867C62.6073 38.0134 59.4949 36.603 58.3688 33.843C57.9935 32.923 57.9208 31.98 58.0386 31.014C58.0772 30.7022 57.9806 30.5375 57.7028 30.3995C55.6024 29.3608 53.5076 28.3102 51.4118 27.2623C51.122 27.1178 50.8276 26.9808 50.5461 26.8207C50.2876 26.6735 50.1137 26.7241 49.8984 26.9366C48.7576 28.0636 47.3693 28.6046 45.7685 28.5567C44.9865 28.5337 44.2349 28.335 43.543 27.9689C43.267 27.8226 43.0987 27.8621 42.8908 28.0719C39.7793 31.1971 36.6642 34.3187 33.5417 37.4329C33.3347 37.6399 33.3209 37.8156 33.4488 38.0576C33.9879 39.0751 34.1563 40.169 33.9806 41.2923C33.6549 43.377 32.527 44.8978 30.5462 45.6558C28.3152 46.5096 26.3059 46.0386 24.5828 44.3826C24.4135 44.2197 24.2727 44.1884 24.0556 44.2979C21.6415 45.5178 19.2256 46.7332 16.8023 47.9328C16.5309 48.0672 16.4923 48.2226 16.5199 48.4931C16.7618 50.8428 15.9366 52.7233 13.9292 53.992C11.0321 55.8228 7.10184 54.4713 5.92332 51.2807C5.8028 50.9541 5.6878 50.6202 5.62432 50.2798C5.55992 49.9357 5.56636 49.5815 5.54152 49.2319ZM46.0031 25.8538C47.5211 25.8547 48.8284 24.5464 48.8238 23.033C48.8192 21.5095 47.5138 20.2197 45.9893 20.2335C44.4704 20.2473 43.1925 21.5215 43.1861 23.0275C43.1806 24.5382 44.4906 25.8528 46.0031 25.8538ZM8.26564 49.3036C8.2684 50.8538 9.52604 52.106 11.0735 52.1004C12.5896 52.0949 13.8528 50.8253 13.8546 49.3055C13.8556 47.7452 12.6191 46.5068 11.056 46.5041C9.48832 46.5013 8.26196 47.7314 8.26564 49.3036ZM60.6918 31.796C60.6955 33.3518 61.9513 34.603 63.4988 34.5938C65.0342 34.5846 66.3011 33.3012 66.2928 31.7629C66.2845 30.2587 64.9974 28.9744 63.4859 28.9772C61.989 28.979 60.6394 30.2495 60.6918 31.796ZM83.7461 5.54017C83.7489 3.98721 82.4958 2.72589 80.9521 2.72773C79.4295 2.72957 78.1645 3.98905 78.158 5.50797C78.1516 7.07197 79.3826 8.31857 80.9392 8.32501C82.5106 8.33237 83.7434 7.10877 83.7461 5.54017ZM28.5148 43.3319C30.0844 43.3384 31.3181 42.112 31.319 40.5452C31.3199 38.9969 30.0917 37.7503 28.5599 37.742C27.0125 37.7346 25.7254 38.9914 25.7199 40.5167C25.7144 42.0623 26.9683 43.3255 28.5148 43.3319Z" fill="#0A567A"/>
</svg>
