<?xml version="1.0" encoding="utf-8"?>
<!-- Generator: Adobe Illustrator 27.9.0, SVG Export Plug-In . SVG Version: 6.00 Build 0)  -->
<svg version="1.1" id="Layer_1" xmlns="http://www.w3.org/2000/svg" xmlns:xlink="http://www.w3.org/1999/xlink" x="0px" y="0px"
	 viewBox="0 0 1000 1000" style="enable-background:new 0 0 1000 1000;" xml:space="preserve">
<style type="text/css">
	.st0{fill:#0A567A;}
</style>
<g id="IzqkiN.tif">
	<g>
		<path class="st0" d="M499.76,999.86c-156.92,0-313.85-0.02-470.77,0.07c-6.65,0-12-1.67-15.48-7.61
			c-5.31-9.06,0.96-21.13,11.44-21.74c5.15-0.3,10.32-0.19,15.48-0.1c2.8,0.05,4.02-1.08,3.84-3.87c-0.09-1.35-0.01-2.72-0.01-4.07
			c0-80.83,0-161.66,0.01-242.49c0-6.56,0.35-13.03,4.23-18.75c4.85-7.15,11.38-12.05,20.08-12.12c34.5-0.25,69-0.39,103.5,0.08
			c12.66,0.17,22.71,11.12,23.63,23.76c0.23,3.11,0.24,6.24,0.24,9.37c0.01,80.69,0.01,161.39,0.01,242.08
			c0,5.98,0.01,5.98,6.12,5.99c9.1,0.01,18.21-0.18,27.31,0.08c4.02,0.12,4.99-1.33,4.98-5.16c-0.1-66.57-0.07-133.13-0.07-199.7
			c0-47.68,0.07-95.37-0.05-143.05c-0.02-9.61,2.76-17.93,10.78-23.3c4.2-2.82,9.62-5.3,14.52-5.37
			c33.69-0.46,67.38-0.46,101.07-0.14c14.41,0.14,24.8,11.88,25.49,27.5c0.1,2.17,0.04,4.35,0.04,6.52c0,111.66,0,223.32,0,334.98
			c0,1.49,0.04,2.99,0.01,4.48c-0.05,2.22,1,3.17,3.23,3.16c10.6-0.04,21.2,0.06,31.79-0.15c0.96-0.02,2.29-1.7,2.72-2.88
			c0.48-1.32,0.12-2.95,0.12-4.44c0-176.47,0.02-352.94-0.04-529.41c0-9.38,2.03-17.7,9.3-24.19c4.86-4.34,10.54-6.85,16.96-6.87
			c33.15-0.13,66.3-0.22,99.45,0.01c14.06,0.1,25.39,11.49,26.3,25.57c0.17,2.57,0.11,5.16,0.11,7.74c0,175.79,0,351.58,0,527.37
			c0,1.49-0.32,3.1,0.13,4.45c0.36,1.09,1.63,2.64,2.53,2.66c10.73,0.19,21.47,0.2,32.2,0c1.02-0.02,2.42-1.67,2.89-2.86
			c0.51-1.3,0.14-2.94,0.14-4.44c0-144.14-0.03-288.27,0.11-432.41c0.01-5.44,0.78-11.22,2.72-16.26
			c3.75-9.7,11.81-14.68,21.97-15.74c5.78-0.6,11.68-0.52,17.5-0.19c8.42,0.47,14.12,6.82,14.01,14.97
			c-0.12,8.22-5.93,13.95-14.56,14.28c-2.44,0.1-4.91,0.21-7.33,0.01c-3.83-0.32-5.21,1.46-4.91,5.04c0.08,0.94,0.01,1.9,0.01,2.85
			c0,142.64,0,285.28,0,427.93c0,0.82,0.07,1.64-0.01,2.44c-0.34,3.28,0.95,4.83,4.4,4.54c2.16-0.18,4.34-0.03,6.52-0.03
			c25.81,0,51.63-0.07,77.44,0.08c3.62,0.02,4.61-1.08,4.61-4.63c-0.08-144.41-0.08-288.82,0-433.22c0-3.97-1.3-5.4-5.17-5.01
			c-2.42,0.24-4.89,0.1-7.33-0.01c-8.02-0.37-13.94-6-14.52-13.72c-0.54-7.27,5.13-14.82,12.91-15.24
			c8.18-0.44,16.6-0.15,24.63,1.35c10.06,1.88,18.06,12.47,18.67,22.64c0.17,2.84,0.17,5.7,0.17,8.55
			c0.01,144.27,0.01,288.54,0.01,432.82c0,6.39,0,6.39,6.45,6.39c9.1,0,18.21-0.12,27.31,0.06c3.57,0.07,4.69-1.17,4.66-4.72
			c-0.15-16.71-0.07-33.42-0.07-50.13c0-224.15,0.01-448.3-0.03-672.46c0-7.32,0.51-14.37,5.19-20.47
			c5.7-7.42,13.37-11.08,22.54-11.12c32.06-0.14,64.13-0.21,96.19,0.01c15.59,0.11,27.22,11.16,27.68,26.72
			c0.06,1.9,0.1,3.8,0.1,5.7c0,110.17,0.01,220.35-0.02,330.52c0,3.24-0.12,6.54-0.71,9.72c-1.1,5.94-7.31,10.74-13.6,10.92
			c-6.21,0.18-12.68-4.36-14.07-10.29c-0.73-3.13-1.05-6.43-1.05-9.66c-0.05-108.54-0.04-217.09-0.04-325.63
			c0-1.49-0.04-2.99-0.01-4.48c0.07-2.84-1.1-4.17-4.13-4.16c-28.26,0.06-56.52,0.06-84.78,0c-2.9-0.01-3.88,1.33-3.8,3.96
			c0.04,1.36,0,2.72,0,4.08c0,238.14,0,476.29,0,714.43c0,0.95,0.09,1.91-0.01,2.85c-0.36,3.19,0.99,4.22,4.19,4.21
			c27.99-0.1,55.98-0.11,83.96,0.01c3.65,0.02,4.65-1.27,4.63-4.75c-0.13-17.8-0.06-35.59-0.06-53.39
			c0-86.54-0.04-173.07,0.12-259.61c0.01-4.15,1-8.75,2.98-12.35c3.28-5.96,9.32-6.96,15.66-5.73c5.24,1.02,9.51,5.87,10.34,11.77
			c0.36,2.54,0.39,5.14,0.39,7.72c0.02,103.25,0.01,206.49,0.02,309.74c0,6.52,0.01,6.52,6.45,6.52c3.94,0.01,7.88-0.07,11.82,0.05
			c8.23,0.26,14.32,6.52,14.32,14.62c0,8.27-6.22,14.54-14.63,14.73c-1.77,0.04-3.53,0.02-5.3,0.02
			C812.25,999.86,656,999.86,499.76,999.86z M546.67,701.61c0-87.88,0-175.77,0-263.65c0-6.1-0.01-6.11-5.91-6.11
			c-27.17,0-54.34,0-81.51,0c-5.79,0-5.8,0.01-5.8,5.81c0,175.77,0,351.54,0,527.31c0,5.47,0.01,5.49,5.71,5.49
			c27.17,0.01,54.34,0,81.51,0c6,0,6-0.01,6.01-6.01C546.67,876.83,546.67,789.22,546.67,701.61z M263.72,796.41
			c0,56.36,0.04,112.72-0.08,169.08c-0.01,3.9,1.07,5.07,5.02,5.04c27.57-0.16,55.14-0.08,82.72-0.09c5.11,0,5.24-0.12,5.24-5.28
			c0.01-112.31,0.01-224.63,0-336.94c0-5.02-0.18-5.18-5.35-5.19c-27.16-0.01-54.33-0.01-81.49,0c-6.04,0-6.05,0-6.05,5.93
			C263.71,684.78,263.72,740.6,263.72,796.41z M166.49,844.58c0-40.35-0.05-80.69,0.08-121.03c0.01-4.03-1.03-5.41-5.24-5.39
			c-27.44,0.17-54.89,0.08-82.33,0.09c-5.05,0-5.23,0.19-5.23,5.33c-0.01,80.55,0.02,161.11-0.08,241.66
			c-0.01,4.14,1.25,5.32,5.34,5.29c27.31-0.16,54.61-0.08,81.92-0.09c5.52,0,5.53-0.01,5.53-5.65
			C166.49,924.73,166.49,884.65,166.49,844.58z"/>
		<path class="st0" d="M60.22,535.13c-0.39-28.15,19.96-50.87,44.29-56.96c22.34-5.6,41.89-0.73,58.3,15.64
			c2.04,2.04,3.6,2.41,6.33,1.03c26.22-13.29,52.52-26.42,78.84-39.51c2.48-1.23,3.26-2.62,2.81-5.42
			c-4.49-27.7,11.42-54.99,37.72-65.09c16.81-6.46,33.23-5.53,49.18,2.66c2.47,1.27,3.88,0.91,5.63-0.86
			c34.09-34.21,68.2-68.4,102.37-102.54c2.1-2.1,2.34-3.95,1.03-6.49c-17.96-34.63,2.2-76.32,39.23-85.54
			c30.22-7.53,61.94,10.4,71.14,40.23c2.76,8.94,4.25,18,1.99,27.26c-0.84,3.45,1.23,4.61,3.6,5.8
			c17.09,8.56,34.18,17.1,51.27,25.66c8.73,4.37,17.48,8.69,26.14,13.18c3.04,1.57,5.14,1.42,7.84-1.15
			c16.4-15.61,35.77-20.97,57.77-15.3c3.76,0.97,5.27-0.06,7.12-2.85c15.32-23.18,30.75-46.29,46.14-69.43
			c24.63-37.02,49.23-74.05,73.94-111.02c1.88-2.81,1.89-4.68-0.21-7.49c-21.02-28.05-15.67-65,12.67-85.57
			c30.03-21.8,72.39-10.78,88.25,22.32c14.96,31.21,2.77,65.57-28.44,80.82c-12.9,6.3-26.61,7.24-40.48,3.42
			c-3.45-0.95-5.41-0.18-7.4,2.82c-40.05,60.3-80.19,120.54-120.34,180.76c-1.68,2.52-2.05,4.39,0.15,7.11
			c26.05,32.28,10.44,79.81-26.37,93.41c-30.23,11.16-64.06-4.17-76.3-34.17c-4.08-10-4.87-20.25-3.59-30.75
			c0.42-3.39-0.63-5.18-3.65-6.68c-22.83-11.29-45.6-22.71-68.38-34.1c-3.15-1.57-6.35-3.06-9.41-4.8c-2.81-1.6-4.7-1.05-7.04,1.26
			c-12.4,12.25-27.49,18.13-44.89,17.61c-8.5-0.25-16.67-2.41-24.19-6.39c-3-1.59-4.83-1.16-7.09,1.12
			c-33.82,33.97-67.68,67.9-101.62,101.75c-2.25,2.25-2.4,4.16-1.01,6.79c5.86,11.06,7.69,22.95,5.78,35.16
			c-3.54,22.66-15.8,39.19-37.33,47.43c-24.25,9.28-46.09,4.16-64.82-13.84c-1.84-1.77-3.37-2.11-5.73-0.92
			c-26.24,13.26-52.5,26.47-78.84,39.51c-2.95,1.46-3.37,3.15-3.07,6.09c2.63,25.54-6.34,45.98-28.16,59.77
			c-31.49,19.9-74.21,5.21-87.02-29.47c-1.31-3.55-2.56-7.18-3.25-10.88C60.42,542.78,60.49,538.93,60.22,535.13z M500.02,281.02
			c16.5,0.01,30.71-14.21,30.66-30.66c-0.05-16.56-14.24-30.58-30.81-30.43c-16.51,0.15-30.4,14-30.47,30.37
			C469.34,266.72,483.58,281.01,500.02,281.02z M89.83,535.91c0.03,16.85,13.7,30.46,30.52,30.4c16.48-0.06,30.21-13.86,30.23-30.38
			c0.01-16.96-13.43-30.42-30.42-30.45C103.12,505.45,89.79,518.82,89.83,535.91z M659.68,345.61
			c0.04,16.91,13.69,30.51,30.51,30.41c16.69-0.1,30.46-14.05,30.37-30.77c-0.09-16.35-14.08-30.31-30.51-30.28
			C673.78,314.99,659.11,328.8,659.68,345.61z M910.27,60.22c0.03-16.88-13.59-30.59-30.37-30.57
			c-16.55,0.02-30.3,13.71-30.37,30.22c-0.07,17,13.31,30.55,30.23,30.62C896.84,90.57,910.24,77.27,910.27,60.22z M309.93,471
			c17.06,0.07,30.47-13.26,30.48-30.29c0.01-16.83-13.34-30.38-29.99-30.47c-16.82-0.08-30.81,13.58-30.87,30.16
			C279.49,457.2,293.12,470.93,309.93,471z"/>
	</g>
</g>
</svg>
