<svg width="90" height="90" viewBox="0 0 90 90" fill="none" xmlns="http://www.w3.org/2000/svg">
<g clip-path="url(#clip0_191_1064)">
<path d="M73.8477 45.0424C73.782 60.9859 60.8148 73.9099 44.9487 73.8442C29.0043 73.7785 16.0326 60.7663 16.1433 44.9488C16.2549 28.9576 29.169 16.0885 45.0405 16.1506C60.9858 16.2136 73.9134 29.1781 73.8477 45.0424ZM45.0153 18.9919C30.6774 18.9775 19.026 30.5983 18.9873 44.9506C18.9486 59.2966 30.5883 70.9633 44.9748 70.9993C59.31 71.0344 71.0298 59.3227 71.0019 44.9911C70.9731 30.6235 59.3613 19.0063 45.0153 18.9919Z" fill="#0A567A"/>
<path d="M75.4997 11.8908C75.4151 10.7685 75.3422 9.80012 75.2693 8.83172C75.2198 8.17562 75.1532 7.52042 75.1253 6.86432C75.0893 6.02012 75.5924 5.39192 76.3331 5.31092C77.1323 5.22362 77.7857 5.69432 77.9117 6.55202C78.0386 7.41152 78.0746 8.28542 78.1448 9.15302C78.3095 11.1906 78.4679 13.2282 78.6344 15.2658C78.7226 16.3485 78.1007 17.0703 77.0585 16.9929C74.1326 16.7778 71.2085 16.5465 68.2862 16.2873C67.1972 16.191 66.6401 15.2379 67.0532 14.3001C67.3097 13.7169 67.883 13.4235 68.6444 13.4829C69.9737 13.5873 71.303 13.6926 72.6332 13.7943C72.8015 13.8069 72.9725 13.7961 73.1426 13.7961C73.1993 13.7268 73.256 13.6575 73.3127 13.5882C73.1561 13.5117 72.9734 13.4649 72.8474 13.3551C68.3456 9.41492 63.257 6.52862 57.5366 4.75022C52.0097 3.03212 46.3676 2.47322 40.6229 3.06992C33.6911 3.78902 27.3182 6.09932 21.524 9.98462C21.3467 10.1034 21.173 10.2276 20.9903 10.3374C20.2577 10.782 19.4594 10.6407 19.0058 9.99002C18.5405 9.32222 18.6692 8.44652 19.4252 7.99382C21.5573 6.71852 23.6786 5.41442 25.8872 4.28222C28.742 2.81792 31.7948 1.83782 34.9241 1.13672C39.2855 0.157519 43.6964 -0.203381 48.1676 0.124219C52.1096 0.412219 55.9472 1.16552 59.6786 2.45522C65.3063 4.40102 70.3517 7.35212 74.8058 11.3085C74.9903 11.4723 75.1847 11.6262 75.4997 11.8908Z" fill="#0A567A"/>
<path d="M11.7073 14.5055C10.7029 14.5856 9.69854 14.6657 8.69324 14.7449C8.07314 14.7935 7.45304 14.8538 6.83114 14.8808C6.01214 14.9159 5.36864 14.3813 5.29934 13.6388C5.22464 12.845 5.72774 12.1889 6.56744 12.0764C7.34234 11.9729 8.12534 11.9333 8.90474 11.8703C11.0314 11.7002 13.159 11.5292 15.2866 11.3645C16.3594 11.2817 17.0506 11.8793 16.9768 12.9161C16.768 15.86 16.5376 18.8021 16.2757 21.7415C16.1803 22.8179 15.1867 23.366 14.2633 22.9295C13.6963 22.6613 13.4137 22.0628 13.4758 21.3176C13.5928 19.9181 13.6981 18.5177 13.807 17.1173C13.8133 17.0318 13.8079 16.9454 13.8079 16.7078C13.6063 16.9049 13.4857 17.0084 13.3813 17.1272C9.04604 22.0277 6.00584 27.6365 4.30034 33.9491C2.87114 39.2375 2.48324 44.6132 3.14564 50.0645C3.96284 56.7839 6.26144 62.9426 10.0405 68.5541C10.1692 68.7458 10.3024 68.9366 10.4086 69.1409C10.7704 69.8366 10.5715 70.6115 9.93884 71.0165C9.30974 71.4188 8.53844 71.3279 8.08664 70.6889C7.39994 69.7187 6.75284 68.7161 6.14714 67.6937C3.80174 63.7373 2.12594 59.5055 1.11704 55.0226C0.131542 50.6441 -0.210458 46.2134 0.125242 41.7242C0.503242 36.6626 1.67414 31.808 3.68204 27.1505C5.50364 22.9241 7.93184 19.0802 10.9414 15.6008C11.2177 15.2813 11.4985 14.9654 11.7766 14.6486C11.7541 14.6 11.7307 14.5532 11.7073 14.5055Z" fill="#0A567A"/>
<path d="M76.3676 73.2052C77.1992 72.172 78.0623 71.1622 78.8561 70.1002C81.4913 66.5722 83.5163 62.7184 84.9257 58.5451C85.8608 55.7776 86.4872 52.9417 86.8463 50.0401C87.3359 46.0738 87.2477 42.1228 86.6096 38.1871C85.8176 33.3037 84.2165 28.6921 81.7676 24.3883C81.1178 23.2471 80.3843 22.1536 79.6904 21.0367C79.1072 20.0989 79.4762 19.0621 80.4887 18.7912C81.0719 18.6346 81.6425 18.8884 82.0736 19.5085C83.5451 21.6307 84.8204 23.8663 85.8959 26.2135C87.5159 29.7505 88.6616 33.4333 89.3258 37.2709C89.8838 40.4929 90.1043 43.7338 89.9558 46.9927C89.7704 51.058 89.0666 55.0387 87.7976 58.9132C85.8527 64.8532 82.8098 70.1632 78.6581 74.836C78.5402 74.9692 78.4268 75.106 78.3161 75.2446C78.2846 75.2842 78.2702 75.3391 78.2099 75.4687C78.3944 75.4687 78.5384 75.4786 78.6806 75.4669C80.117 75.3526 81.5516 75.2284 82.988 75.1213C83.9519 75.0493 84.635 75.5695 84.6971 76.3957C84.7601 77.2291 84.1859 77.869 83.2229 77.9518C80.8307 78.1579 78.4367 78.3352 76.0427 78.5242C75.5639 78.562 75.086 78.6079 74.6063 78.6349C73.6163 78.6889 72.9332 78.0688 73.0052 77.0887C73.2194 74.1448 73.4615 71.2036 73.7162 68.2633C73.7909 67.4065 74.4416 66.8593 75.2057 66.9205C76.0184 66.9853 76.5818 67.6774 76.5179 68.5621C76.4207 69.9103 76.3073 71.2567 76.2047 72.604C76.1921 72.7741 76.2029 72.946 76.2029 73.1161C76.2578 73.1476 76.3127 73.1764 76.3676 73.2052Z" fill="#0A567A"/>
<path d="M14.5062 78.2849C14.6232 79.8437 14.7519 81.4016 14.8473 82.9613C14.8671 83.2862 14.8302 83.6471 14.7033 83.9414C14.4702 84.4823 13.8627 84.7829 13.2957 84.6884C12.7053 84.5894 12.2337 84.2663 12.1419 83.6588C11.9934 82.6769 11.9187 81.6833 11.8359 80.6924C11.6721 78.7439 11.5371 76.7918 11.3652 74.8442C11.2536 73.5833 11.8845 72.9083 13.1373 73.0082C16.0092 73.2386 18.8811 73.4636 21.7521 73.7093C22.4658 73.7705 22.9023 74.1944 23.0436 74.8586C23.157 75.3914 22.9311 76.0106 22.4127 76.2698C22.0833 76.4345 21.6657 76.5092 21.2949 76.4894C19.9809 76.4219 18.6705 76.295 17.3583 76.1951C17.19 76.1825 17.0208 76.1933 16.7859 76.3121C17.2305 76.7 17.6661 77.0996 18.1215 77.4749C22.527 81.0992 27.4455 83.7704 32.9229 85.3895C38.9304 87.1643 45.0333 87.6116 51.2343 86.6873C57.4884 85.7558 63.2331 83.5184 68.4828 79.9985C68.6304 79.8995 68.778 79.8005 68.9292 79.706C69.7311 79.2038 70.5258 79.3253 70.9956 80.021C71.4654 80.7176 71.3106 81.5528 70.5105 82.0451C68.7258 83.1431 66.96 84.2879 65.0961 85.2356C58.0968 88.7924 50.6349 90.3296 42.8085 89.9327C32.7708 89.4242 23.8716 85.9133 16.1217 79.508C15.6078 79.0832 15.1191 78.6296 14.6187 78.1895C14.5809 78.2219 14.5431 78.2534 14.5062 78.2849Z" fill="#0A567A"/>
<path d="M50.7274 43.1164C51.3538 43.4071 51.9046 43.6384 52.4329 43.912C56.8294 46.1908 59.7589 49.6909 61.0531 54.4798C61.3924 55.7371 61.522 57.0619 61.6372 58.3651C61.7542 59.6908 61.1953 60.2272 59.8678 60.229C54.7468 60.2335 49.6258 60.2308 44.5048 60.2317C39.7753 60.2317 35.0449 60.2326 30.3154 60.229C29.9968 60.229 29.6692 60.2308 29.3605 60.1642C28.7062 60.0229 28.3336 59.4415 28.3399 58.609C28.3597 55.9495 28.9798 53.4295 30.2326 51.0886C32.146 47.5129 34.9711 44.9173 38.743 43.3801C38.8411 43.3396 38.9365 43.2901 39.0301 43.2397C39.076 43.2154 39.1147 43.1785 39.2155 43.1038C36.2203 40.609 34.8451 37.4626 35.5021 33.5791C35.8963 31.2508 37.0654 29.3212 38.9041 27.8353C42.7561 24.7213 48.2146 24.9616 51.7408 28.4203C53.8504 30.4885 54.8233 33.0481 54.6262 35.9911C54.4309 38.9107 53.0674 41.2534 50.7274 43.1164ZM31.1164 57.3877C31.543 57.3877 31.7518 57.3877 31.9615 57.3877C36.2815 57.3877 40.6015 57.3877 44.9215 57.3877C49.3126 57.3877 53.7037 57.3877 58.0948 57.3868C58.7725 57.3868 58.7986 57.3598 58.6582 56.6875C58.5277 56.0629 58.4044 55.4347 58.2307 54.8218C56.7367 49.5505 51.7192 45.4528 46.2589 45.0325C39.9166 44.5438 34.2997 48.0646 32.0461 53.9965C31.6474 55.045 31.4449 56.1673 31.1164 57.3877ZM44.9881 42.1381C48.7276 42.1453 51.8164 39.0673 51.8281 35.3233C51.8398 31.5919 48.7528 28.5031 45.0025 28.495C41.254 28.4869 38.1814 31.5514 38.1706 35.3089C38.1607 39.0493 41.2369 42.1309 44.9881 42.1381Z" fill="#0A567A"/>
</g>
<defs>
<clipPath id="clip0_191_1064">
<rect width="90" height="90" fill="white"/>
</clipPath>
</defs>
</svg>
