<svg width="90" height="90" viewBox="0 0 90 90" fill="none" xmlns="http://www.w3.org/2000/svg">
<g clip-path="url(#clip0_191_1058)">
<path d="M44.9848 89.9897C32.3182 89.9897 19.6507 89.9861 6.98407 89.9933C4.91677 89.9942 3.14467 89.3327 1.76767 87.7649C0.775871 86.6363 0.232272 85.3124 0.200772 83.795C0.197172 83.6114 0.193572 83.4269 0.193572 83.2433C0.193572 59.9873 0.197172 36.7322 0.184572 13.4762C0.183672 11.7437 0.649872 10.2173 1.80007 8.91681C3.17707 7.35981 4.94917 6.72531 6.98677 6.72531C9.53017 6.72531 12.0736 6.72441 14.617 6.72351C14.7673 6.72351 14.9185 6.71901 15.0688 6.72081C15.3361 6.72441 15.4387 6.59751 15.472 6.32841C15.8563 3.23241 17.5726 1.18941 20.5327 0.323612C24.1147 -0.723988 27.9019 1.40451 28.9486 4.99731C29.1016 5.52291 29.1808 6.07461 29.2411 6.62001C29.278 6.95121 29.3779 7.08621 29.7271 7.08531C32.3542 7.07451 34.9813 7.07181 37.6084 7.08711C38.0395 7.08981 38.0962 6.86661 38.116 6.52821C38.2357 4.52841 38.9917 2.83011 40.5811 1.57191C44.0227 -1.15149 49.5712 -0.0930886 51.2974 4.07661C51.6169 4.84791 51.724 5.71371 51.8671 6.54711C51.9337 6.93321 52.0426 7.09071 52.4548 7.08801C55.0486 7.07271 57.6424 7.07361 60.2353 7.08711C60.6088 7.08891 60.715 6.95571 60.7447 6.59751C61.0084 3.36471 62.6185 1.29381 65.7703 0.336212C68.6719 -0.545788 71.9965 0.351512 73.5886 2.90121C74.1655 3.82551 74.4841 4.83441 74.5417 5.92431C74.584 6.72441 74.5831 6.72441 75.4057 6.72441C77.932 6.72531 80.4592 6.72441 82.9855 6.72531C84.7702 6.72621 86.3893 7.19241 87.7222 8.43621C89.0155 9.64221 89.731 11.1227 89.7958 12.902C89.8021 13.0856 89.8048 13.2701 89.8048 13.4537C89.8048 36.7259 89.8012 59.9981 89.8129 83.2703C89.8138 85.1198 89.2576 86.7182 87.9742 88.0448C86.8069 89.2517 85.3507 89.8547 83.6875 89.9744C83.3374 89.9996 82.9846 89.9897 82.6336 89.9897C70.0849 89.9897 57.5344 89.9897 44.9848 89.9897ZM45.0235 25.9223C31.4029 25.9223 17.7823 25.9223 4.16077 25.9223C3.42457 25.9223 3.42367 25.9232 3.42367 26.6558C3.42367 43.6541 3.42367 60.6524 3.42367 77.6516C3.42367 78.386 3.42457 78.3869 4.16167 78.3869C15.5233 78.3869 26.8858 78.3869 38.2474 78.3869C49.8097 78.3869 61.3729 78.3869 72.9352 78.3869C73.7677 78.3869 73.7677 78.3869 73.7677 77.5319C73.7677 75.8084 73.7344 74.084 73.783 72.3623C73.8055 71.5856 73.9144 70.7918 74.1187 70.043C74.737 67.7732 77.0095 65.8382 79.363 65.6978C81.514 65.5691 83.6767 65.6204 85.834 65.5961C86.572 65.588 86.5729 65.5934 86.5729 64.8509C86.5729 52.1186 86.5729 39.3863 86.5729 26.6549C86.5729 25.9232 86.572 25.9232 85.8358 25.9232C72.2323 25.9223 58.6279 25.9223 45.0235 25.9223ZM44.9803 22.685C53.0794 22.685 61.1785 22.685 69.2776 22.685C74.8333 22.685 80.389 22.6832 85.9438 22.6886C86.3092 22.6886 86.5846 22.6931 86.5819 22.181C86.563 19.1363 86.5837 16.0907 86.5549 13.046C86.5504 12.6122 86.4226 12.1442 86.2273 11.7536C85.5811 10.463 84.4588 9.96801 83.0566 9.96981C78.1201 9.97701 73.1836 9.97341 68.248 9.96981C67.9483 9.96981 67.6432 9.96531 67.3489 9.91311C66.376 9.74121 65.8135 8.65311 66.2104 7.75131C66.5362 7.01061 67.1491 6.74151 67.9042 6.73071C68.8915 6.71631 69.8788 6.71721 70.8661 6.72801C71.2054 6.73161 71.3494 6.62001 71.335 6.26181C71.2864 5.09541 70.7887 4.20081 69.7447 3.66351C68.5675 3.05781 67.3534 3.10821 66.1609 3.61491C64.9315 4.13691 64.1008 5.04951 64.0243 6.40671C63.9388 7.92231 63.9163 9.45411 64.0396 10.9652C64.1701 12.5573 65.1862 13.5536 66.6865 14.027C67.1104 14.1611 67.5829 14.1341 68.0185 14.2412C68.8069 14.4356 69.3199 15.1709 69.2362 15.9143C69.1408 16.763 68.5234 17.3948 67.6612 17.3561C66.9034 17.3228 66.1105 17.2436 65.4049 16.9853C62.5906 15.9566 61.0507 13.8857 60.7555 10.9166C60.7033 10.3955 60.5215 10.2992 60.0481 10.301C55.162 10.3163 50.2759 10.3127 45.3898 10.3064C45.0766 10.3064 44.7418 10.2992 44.4547 10.1939C43.7374 9.93201 43.3135 9.18591 43.4233 8.48481C43.5448 7.70361 44.2099 7.10241 45.0262 7.08711C46.0801 7.06641 47.1349 7.07001 48.1888 7.08441C48.5497 7.08981 48.6955 6.99981 48.6613 6.59931C48.5065 4.80021 46.9378 3.31971 45.1054 3.27831C43.2334 3.23511 41.5099 4.63281 41.3848 6.44091C41.2822 7.92141 41.2822 9.41991 41.3749 10.9013C41.4685 12.3881 42.3469 13.3997 43.7347 13.91C44.2432 14.0972 44.8129 14.1071 45.3457 14.2376C46.1503 14.4347 46.6732 15.1799 46.5832 15.9476C46.4896 16.7459 45.8551 17.3516 45.0253 17.3714C44.56 17.3831 44.0803 17.3615 43.6276 17.2634C40.5037 16.592 38.3068 14.0072 38.1061 10.9976C38.0602 10.31 38.0449 10.31 37.3744 10.31C32.4883 10.31 27.6022 10.3118 22.7161 10.3046C22.4029 10.3046 22.0681 10.2956 21.7819 10.1885C21.061 9.91671 20.638 9.15171 20.7685 8.47041C20.9251 7.66041 21.5542 7.09971 22.3795 7.08531C23.4334 7.06641 24.4882 7.07721 25.5421 7.07901C25.8148 7.07901 26.0344 7.07001 26.0164 6.68391C25.9327 4.88571 24.2893 3.31431 22.429 3.27561C20.5246 3.23601 18.7822 4.72281 18.6958 6.54891C18.6301 7.95111 18.6211 9.36141 18.6904 10.7627C18.766 12.2963 19.6165 13.352 21.0349 13.8965C21.5551 14.0963 22.1446 14.1035 22.6927 14.2394C23.5063 14.441 23.9878 15.1439 23.9113 15.9566C23.8384 16.7333 23.1751 17.3912 22.3498 17.3597C21.6226 17.3318 20.8648 17.2634 20.1835 17.0303C17.2639 16.0286 15.5233 13.622 15.4144 10.5269C15.4 10.1192 15.2731 9.96261 14.8591 9.96441C12.1483 9.97611 9.43747 9.97341 6.72667 9.97251C4.62247 9.97161 3.36967 11.6834 3.40657 13.3574C3.47047 16.2005 3.42367 19.0454 3.42367 21.8894C3.42367 22.6823 3.42457 22.6823 4.21747 22.6823C17.8057 22.685 31.393 22.685 44.9803 22.685ZM86.5387 71.2049C86.2903 71.4389 86.1553 71.5586 86.0284 71.6864C83.0827 74.6312 80.1163 77.5553 77.2075 80.5361C76.4326 81.3308 75.6172 81.6494 74.512 81.6485C51.1399 81.6242 27.7669 81.6305 4.39477 81.6305C4.21117 81.6305 4.02667 81.6395 3.84307 81.6305C3.54607 81.6161 3.41647 81.7466 3.42367 82.0463C3.43447 82.4639 3.45247 82.8842 3.42097 83.3009C3.27967 85.1693 4.79257 86.7695 6.86257 86.7677C32.293 86.7542 57.7234 86.7551 83.1538 86.7659C85.2004 86.7668 86.6224 85.19 86.5927 83.3333C86.5324 79.52 86.5747 75.7058 86.5738 71.8916C86.572 71.7152 86.5558 71.5388 86.5387 71.2049ZM77.0554 75.7832C79.372 73.4756 81.685 71.1707 83.9836 68.8802C84.0124 68.8928 83.9683 68.8559 83.9242 68.8559C82.4536 68.8748 80.9794 68.837 79.5142 68.9378C78.4423 69.0116 77.2408 70.1645 77.1499 71.2418C77.0239 72.7358 77.0644 74.2442 77.0365 75.7463C77.0365 75.7877 77.0815 75.8291 77.0554 75.7832Z" fill="#0A567A"/>
<path d="M67.3771 52.4138C67.2709 58.7354 65.1289 64.1966 60.4687 68.5679C57.9802 70.9016 55.048 72.4874 51.8179 73.5575C48.7975 74.5583 45.6988 74.8445 42.5605 74.5025C38.2801 74.0363 34.4281 72.4595 31.0414 69.7757C28.0192 67.3808 25.7512 64.4126 24.2626 60.8576C22.7488 57.2405 22.189 53.483 22.6588 49.5779C23.3608 43.745 25.951 38.9084 30.37 35.0663C33.0457 32.7398 36.139 31.1873 39.5887 30.3233C42.6415 29.5583 45.7177 29.4494 48.7921 30.0038C57.0127 31.487 62.7133 36.1292 65.8219 43.8845C66.9154 46.6061 67.3969 49.469 67.3771 52.4138ZM25.6576 52.1528C25.6585 54.3812 26.0734 56.5025 26.8384 58.5554C28.1614 62.1032 30.3502 65.0246 33.3256 67.3547C36.0103 69.4571 39.0424 70.7981 42.4174 71.2814C46.2505 71.8304 49.9531 71.2121 53.3785 69.4661C60.3049 65.9354 63.9301 60.1961 64.2469 52.4309C64.3441 50.0441 63.8725 47.7077 63.0706 45.4505C61.9312 42.2429 60.061 39.5384 57.415 37.3919C54.3901 34.9385 50.9215 33.5525 47.0515 33.1196C43.1554 32.6831 39.4222 33.2627 35.9734 35.1041C29.1766 38.7347 26.1661 44.7071 25.6576 52.1528Z" fill="#0A567A"/>
<path d="M42.2783 59.2097C41.9075 59.0144 41.4647 58.8929 41.1767 58.613C39.392 56.876 37.6325 55.112 35.8847 53.3372C35.1755 52.6163 35.198 51.674 35.8775 51.017C36.5093 50.4068 37.4957 50.4194 38.1743 51.0845C39.4154 52.3013 40.6529 53.5244 41.8607 54.7745C42.2153 55.1417 42.425 55.1354 42.7787 54.779C45.7298 51.8009 48.698 48.8399 51.6635 45.8744C52.3502 45.1877 52.9901 45.0329 53.6867 45.3713C54.6389 45.833 54.9206 46.9202 54.2915 47.7743C54.1052 48.0281 53.8703 48.2486 53.6471 48.4727C50.3522 51.7712 47.0555 55.0679 43.7588 58.3655C43.3637 58.7606 42.9542 59.1296 42.2783 59.2097Z" fill="#0A567A"/>
</g>
<defs>
<clipPath id="clip0_191_1058">
<rect width="90" height="90" fill="white"/>
</clipPath>
</defs>
</svg>
